STARTFONT 2.1
COMMENT
COMMENT Converted from OpenType font "DSEG7Classic-Bold.ttf" by "otf2bdf 3.0".
COMMENT
FONT -FreeType-DSEG7 Classic-Bold-R-Normal--36-360-72-72-P-200-ISO10646-1
SIZE 36 72 72
FONTBOUNDINGBOX 28 37 -2 0
STARTPROPERTIES 19
FOUNDRY "FreeType"
FAMILY_NAME "DSEG7 Classic"
WEIGHT_NAME "Bold"
SLANT "R"
SETWIDTH_NAME "Normal"
ADD_STYLE_NAME ""
PIXEL_SIZE 36
POINT_SIZE 360
RESOLUTION_X 72
RESOLUTION_Y 72
SPACING "P"
AVERAGE_WIDTH 200
CHARSET_REGISTRY "ISO10646"
CHARSET_ENCODING "1"
FONT_ASCENT 36
FONT_DESCENT 0
COPYRIGHT "Created by Keshikan  with FontForge 2.0 (http://fontforge.sf.net)  "
_OTF_FONTFILE "DSEG7Classic-Bold.ttf"
_OTF_PSNAME "DSEG7Classic-Bold"
ENDPROPERTIES
CHARS 69
STARTCHAR 0020
ENCODING 32
SWIDTH 194 0
DWIDTH 7 0
BBX 0 0 0 0
BITMAP
ENDCHAR
STARTCHAR 0021
ENCODING 33
SWIDTH 805 0
DWIDTH 29 0
BBX 0 0 0 0
BITMAP
ENDCHAR
STARTCHAR 002D
ENCODING 45
SWIDTH 805 0
DWIDTH 29 0
BBX 16 5 7 16
BITMAP
7FFC
FFFE
FFFF
FFFE
7FFC
ENDCHAR
STARTCHAR 002E
ENCODING 46
SWIDTH 0 0
DWIDTH 0 0
BBX 4 5 -2 0
BITMAP
20
F0
F0
F0
70
ENDCHAR
STARTCHAR 0030
ENCODING 48
SWIDTH 805 0
DWIDTH 29 0
BBX 22 37 4 0
BITMAP
1FFFF0
3FFFF8
5FFFF4
FFFFEC
EFFFDC
F0003C
F0003C
F0003C
F0003C
F0003C
F0003C
F0003C
F0003C
F0003C
F0003C
F0003C
F0001C
E0000C
000000
C0000C
E0001C
F0003C
F0003C
F0003C
F0003C
F0003C
F0003C
F0003C
F0003C
F0003C
F0003C
F0003C
F7FFDC
EFFFEC
DFFFF4
3FFFF8
3FFFF0
ENDCHAR
STARTCHAR 0031
ENCODING 49
SWIDTH 805 0
DWIDTH 29 0
BBX 4 33 21 2
BITMAP
10
30
70
F0
F0
F0
F0
F0
F0
F0
F0
F0
F0
F0
70
30
00
30
70
F0
F0
F0
F0
F0
F0
F0
F0
F0
F0
F0
70
30
10
ENDCHAR
STARTCHAR 0032
ENCODING 50
SWIDTH 805 0
DWIDTH 29 0
BBX 22 37 4 0
BITMAP
1FFFF0
3FFFF8
1FFFF4
1FFFEC
0FFFDC
00003C
00003C
00003C
00003C
00003C
00003C
00003C
00003C
00003C
00003C
00003C
07FF9C
0FFFCC
1FFFE0
DFFFE0
EFFFC0
F00000
F00000
F00000
F00000
F00000
F00000
F00000
F00000
F00000
F00000
F00000
F7FFC0
EFFFE0
DFFFF0
3FFFF8
3FFFF0
ENDCHAR
STARTCHAR 0033
ENCODING 51
SWIDTH 805 0
DWIDTH 29 0
BBX 20 37 5 0
BITMAP
7FFFC0
FFFFE0
7FFFD0
3FFFB0
1FFF70
0000F0
0000F0
0000F0
0000F0
0000F0
0000F0
0000F0
0000F0
0000F0
0000F0
0000F0
1FFE70
3FFF30
7FFF80
3FFFB0
1FFF70
0000F0
0000F0
0000F0
0000F0
0000F0
0000F0
0000F0
0000F0
0000F0
0000F0
0000F0
1FFF70
3FFFB0
7FFFD0
FFFFE0
FFFFC0
ENDCHAR
STARTCHAR 0034
ENCODING 52
SWIDTH 805 0
DWIDTH 29 0
BBX 22 33 4 2
BITMAP
400004
E0000C
F0001C
F0003C
F0003C
F0003C
F0003C
F0003C
F0003C
F0003C
F0003C
F0003C
F0003C
F0003C
F7FF9C
EFFFCC
1FFFE0
1FFFEC
0FFFDC
00003C
00003C
00003C
00003C
00003C
00003C
00003C
00003C
00003C
00003C
00003C
00003C
00001C
00000C
ENDCHAR
STARTCHAR 0035
ENCODING 53
SWIDTH 805 0
DWIDTH 29 0
BBX 22 37 4 0
BITMAP
1FFFF0
3FFFF8
5FFFF0
FFFFE0
EFFFC0
F00000
F00000
F00000
F00000
F00000
F00000
F00000
F00000
F00000
F00000
F00000
F7FF80
EFFFC0
1FFFE0
1FFFEC
0FFFDC
00003C
00003C
00003C
00003C
00003C
00003C
00003C
00003C
00003C
00003C
00003C
07FFDC
0FFFEC
1FFFF4
3FFFF8
3FFFF0
ENDCHAR
STARTCHAR 0036
ENCODING 54
SWIDTH 805 0
DWIDTH 29 0
BBX 22 37 4 0
BITMAP
1FFFF0
3FFFF8
5FFFF0
FFFFE0
EFFFC0
F00000
F00000
F00000
F00000
F00000
F00000
F00000
F00000
F00000
F00000
F00000
F7FF80
EFFFC0
1FFFE0
DFFFEC
EFFFDC
F0003C
F0003C
F0003C
F0003C
F0003C
F0003C
F0003C
F0003C
F0003C
F0003C
F0003C
F7FFDC
EFFFEC
DFFFF4
3FFFF8
3FFFF0
ENDCHAR
STARTCHAR 0037
ENCODING 55
SWIDTH 805 0
DWIDTH 29 0
BBX 22 36 4 1
BITMAP
1FFFF0
3FFFF8
5FFFF4
FFFFEC
EFFFDC
F0003C
F0003C
F0003C
F0003C
F0003C
F0003C
F0003C
F0003C
F0003C
F0003C
F0003C
F0003C
E0001C
C0000C
00000C
00001C
00003C
00003C
00003C
00003C
00003C
00003C
00003C
00003C
00003C
00003C
00003C
00003C
00001C
00000C
000004
ENDCHAR
STARTCHAR 0038
ENCODING 56
SWIDTH 805 0
DWIDTH 29 0
BBX 22 37 4 0
BITMAP
1FFFF0
3FFFF8
5FFFF4
FFFFEC
EFFFDC
F0003C
F0003C
F0003C
F0003C
F0003C
F0003C
F0003C
F0003C
F0003C
F0003C
F0003C
F7FF9C
EFFFCC
1FFFE0
DFFFEC
EFFFDC
F0003C
F0003C
F0003C
F0003C
F0003C
F0003C
F0003C
F0003C
F0003C
F0003C
F0003C
F7FFDC
EFFFEC
DFFFF4
3FFFF8
3FFFF0
ENDCHAR
STARTCHAR 0039
ENCODING 57
SWIDTH 805 0
DWIDTH 29 0
BBX 22 37 4 0
BITMAP
1FFFF0
3FFFF8
5FFFF4
FFFFEC
EFFFDC
F0003C
F0003C
F0003C
F0003C
F0003C
F0003C
F0003C
F0003C
F0003C
F0003C
F0003C
F7FF9C
EFFFCC
1FFFE0
1FFFEC
0FFFDC
00003C
00003C
00003C
00003C
00003C
00003C
00003C
00003C
00003C
00003C
00003C
07FFDC
0FFFEC
1FFFF4
3FFFF8
3FFFF0
ENDCHAR
STARTCHAR 003A
ENCODING 58
SWIDTH 194 0
DWIDTH 7 0
BBX 4 20 1 8
BITMAP
20
F0
F0
F0
70
00
00
00
00
00
00
00
00
00
00
20
F0
F0
F0
70
ENDCHAR
STARTCHAR 0041
ENCODING 65
SWIDTH 833 0
DWIDTH 30 0
BBX 22 35 4 2
BITMAP
1FFFF0
3FFFF8
5FFFF4
FFFFEC
EFFFDC
F0003C
F0003C
F0003C
F0003C
F0003C
F0003C
F0003C
F0003C
F0003C
F0003C
F0003C
F7FF9C
EFFFCC
1FFFE0
DFFFEC
EFFFDC
F0003C
F0003C
F0003C
F0003C
F0003C
F0003C
F0003C
F0003C
F0003C
F0003C
F0003C
F0003C
E0001C
C0000C
ENDCHAR
STARTCHAR 0042
ENCODING 66
SWIDTH 833 0
DWIDTH 30 0
BBX 22 35 4 0
BITMAP
400000
E00000
F00000
F00000
F00000
F00000
F00000
F00000
F00000
F00000
F00000
F00000
F00000
F00000
F7FF80
EFFFC0
1FFFE0
DFFFEC
EFFFDC
F0003C
F0003C
F0003C
F0003C
F0003C
F0003C
F0003C
F0003C
F0003C
F0003C
F0003C
F7FFDC
EFFFEC
DFFFF4
3FFFF8
3FFFF0
ENDCHAR
STARTCHAR 0043
ENCODING 67
SWIDTH 833 0
DWIDTH 30 0
BBX 20 21 4 0
BITMAP
07FF80
0FFFC0
1FFFE0
DFFFE0
EFFFC0
F00000
F00000
F00000
F00000
F00000
F00000
F00000
F00000
F00000
F00000
F00000
F7FF80
EFFFC0
DFFFE0
3FFFF0
3FFFF0
ENDCHAR
STARTCHAR 0044
ENCODING 68
SWIDTH 833 0
DWIDTH 30 0
BBX 22 35 4 0
BITMAP
000004
00000C
00001C
00003C
00003C
00003C
00003C
00003C
00003C
00003C
00003C
00003C
00003C
00003C
07FF9C
0FFFCC
1FFFE0
DFFFEC
EFFFDC
F0003C
F0003C
F0003C
F0003C
F0003C
F0003C
F0003C
F0003C
F0003C
F0003C
F0003C
F7FFDC
EFFFEC
DFFFF4
3FFFF8
3FFFF0
ENDCHAR
STARTCHAR 0045
ENCODING 69
SWIDTH 833 0
DWIDTH 30 0
BBX 21 37 4 0
BITMAP
1FFFF0
3FFFF8
7FFFF0
FFFFE0
EFFFC0
F00000
F00000
F00000
F00000
F00000
F00000
F00000
F00000
F00000
F00000
F00000
F7FF80
EFFFC0
1FFFE0
DFFFE0
EFFFC0
F00000
F00000
F00000
F00000
F00000
F00000
F00000
F00000
F00000
F00000
F00000
F7FF80
EFFFC0
DFFFE0
3FFFF0
3FFFF0
ENDCHAR
STARTCHAR 0046
ENCODING 70
SWIDTH 833 0
DWIDTH 30 0
BBX 21 35 4 2
BITMAP
1FFFF0
3FFFF8
7FFFF0
FFFFE0
EFFFC0
F00000
F00000
F00000
F00000
F00000
F00000
F00000
F00000
F00000
F00000
F00000
F7FF80
EFFFC0
1FFFE0
DFFFE0
EFFFC0
F00000
F00000
F00000
F00000
F00000
F00000
F00000
F00000
F00000
F00000
F00000
F00000
E00000
C00000
ENDCHAR
STARTCHAR 0047
ENCODING 71
SWIDTH 833 0
DWIDTH 30 0
BBX 22 37 4 0
BITMAP
1FFFF0
3FFFF8
5FFFF0
FFFFE0
EFFFC0
F00000
F00000
F00000
F00000
F00000
F00000
F00000
F00000
F00000
F00000
F00000
F00000
E00000
000000
C0000C
E0001C
F0003C
F0003C
F0003C
F0003C
F0003C
F0003C
F0003C
F0003C
F0003C
F0003C
F0003C
F7FFDC
EFFFEC
DFFFF4
3FFFF8
3FFFF0
ENDCHAR
STARTCHAR 0048
ENCODING 72
SWIDTH 833 0
DWIDTH 30 0
BBX 22 33 4 2
BITMAP
400000
E00000
F00000
F00000
F00000
F00000
F00000
F00000
F00000
F00000
F00000
F00000
F00000
F00000
F7FF80
EFFFC0
1FFFE0
DFFFEC
EFFFDC
F0003C
F0003C
F0003C
F0003C
F0003C
F0003C
F0003C
F0003C
F0003C
F0003C
F0003C
F0003C
E0001C
C0000C
ENDCHAR
STARTCHAR 0049
ENCODING 73
SWIDTH 805 0
DWIDTH 29 0
BBX 4 16 21 2
BITMAP
30
70
F0
F0
F0
F0
F0
F0
F0
F0
F0
F0
F0
70
30
10
ENDCHAR
STARTCHAR 004A
ENCODING 74
SWIDTH 833 0
DWIDTH 30 0
BBX 22 35 4 0
BITMAP
000004
00000C
00001C
00003C
00003C
00003C
00003C
00003C
00003C
00003C
00003C
00003C
00003C
00003C
00003C
00001C
00000C
E0000C
F0001C
F0003C
F0003C
F0003C
F0003C
F0003C
F0003C
F0003C
F0003C
F0003C
F0003C
F0003C
F7FFDC
EFFFEC
DFFFF4
3FFFF8
3FFFF0
ENDCHAR
STARTCHAR 004B
ENCODING 75
SWIDTH 833 0
DWIDTH 30 0
BBX 22 35 4 2
BITMAP
1FFFF0
3FFFF8
5FFFF0
FFFFE0
EFFFC0
F00000
F00000
F00000
F00000
F00000
F00000
F00000
F00000
F00000
F00000
F00000
F7FF80
EFFFC0
1FFFE0
DFFFEC
EFFFDC
F0003C
F0003C
F0003C
F0003C
F0003C
F0003C
F0003C
F0003C
F0003C
F0003C
F0003C
F0003C
E0001C
C0000C
ENDCHAR
STARTCHAR 004C
ENCODING 76
SWIDTH 833 0
DWIDTH 30 0
BBX 20 34 4 1
BITMAP
C00000
E00000
F00000
F00000
F00000
F00000
F00000
F00000
F00000
F00000
F00000
F00000
F00000
F00000
E00000
C00000
E00000
F00000
F00000
F00000
F00000
F00000
F00000
F00000
F00000
F00000
F00000
F00000
F00000
F7FF80
EFFFC0
DFFFE0
3FFFF0
3FFFF0
ENDCHAR
STARTCHAR 004D
ENCODING 77
SWIDTH 833 0
DWIDTH 30 0
BBX 22 35 4 2
BITMAP
1FFFF0
3FFFF8
5FFFF4
FFFFEC
EFFFDC
F0003C
F0003C
F0003C
F0003C
F0003C
F0003C
F0003C
F0003C
F0003C
F0003C
F0003C
F0001C
E0000C
000000
E0000C
F0001C
F0003C
F0003C
F0003C
F0003C
F0003C
F0003C
F0003C
F0003C
F0003C
F0003C
F0003C
F0001C
E0000C
C00004
ENDCHAR
STARTCHAR 004E
ENCODING 78
SWIDTH 833 0
DWIDTH 30 0
BBX 22 19 4 2
BITMAP
07FF80
0FFFC0
1FFFE0
DFFFEC
EFFFDC
F0003C
F0003C
F0003C
F0003C
F0003C
F0003C
F0003C
F0003C
F0003C
F0003C
F0003C
F0003C
E0001C
C0000C
ENDCHAR
STARTCHAR 004F
ENCODING 79
SWIDTH 833 0
DWIDTH 30 0
BBX 22 21 4 0
BITMAP
07FF80
0FFFC0
1FFFE0
DFFFEC
EFFFDC
F0003C
F0003C
F0003C
F0003C
F0003C
F0003C
F0003C
F0003C
F0003C
F0003C
F0003C
F7FFDC
EFFFEC
DFFFF4
3FFFF8
3FFFF0
ENDCHAR
STARTCHAR 0050
ENCODING 80
SWIDTH 833 0
DWIDTH 30 0
BBX 22 35 4 2
BITMAP
1FFFF0
3FFFF8
5FFFF4
FFFFEC
EFFFDC
F0003C
F0003C
F0003C
F0003C
F0003C
F0003C
F0003C
F0003C
F0003C
F0003C
F0003C
F7FF9C
EFFFCC
1FFFE0
DFFFE0
EFFFC0
F00000
F00000
F00000
F00000
F00000
F00000
F00000
F00000
F00000
F00000
F00000
F00000
E00000
C00000
ENDCHAR
STARTCHAR 0051
ENCODING 81
SWIDTH 833 0
DWIDTH 30 0
BBX 22 35 4 2
BITMAP
1FFFF0
3FFFF8
5FFFF4
FFFFEC
EFFFDC
F0003C
F0003C
F0003C
F0003C
F0003C
F0003C
F0003C
F0003C
F0003C
F0003C
F0003C
F7FF9C
EFFFCC
1FFFE0
1FFFEC
0FFFDC
00003C
00003C
00003C
00003C
00003C
00003C
00003C
00003C
00003C
00003C
00003C
00003C
00001C
00000C
ENDCHAR
STARTCHAR 0052
ENCODING 82
SWIDTH 833 0
DWIDTH 30 0
BBX 19 19 4 2
BITMAP
07FF80
0FFFC0
1FFFE0
DFFFE0
EFFFC0
F00000
F00000
F00000
F00000
F00000
F00000
F00000
F00000
F00000
F00000
F00000
F00000
E00000
C00000
ENDCHAR
STARTCHAR 0053
ENCODING 83
SWIDTH 833 0
DWIDTH 30 0
BBX 22 35 4 0
BITMAP
400000
E00000
F00000
F00000
F00000
F00000
F00000
F00000
F00000
F00000
F00000
F00000
F00000
F00000
F7FF80
EFFFC0
1FFFE0
1FFFEC
0FFFDC
00003C
00003C
00003C
00003C
00003C
00003C
00003C
00003C
00003C
00003C
00003C
07FFDC
0FFFEC
1FFFF4
3FFFF8
3FFFF0
ENDCHAR
STARTCHAR 0054
ENCODING 84
SWIDTH 833 0
DWIDTH 30 0
BBX 20 35 4 0
BITMAP
400000
E00000
F00000
F00000
F00000
F00000
F00000
F00000
F00000
F00000
F00000
F00000
F00000
F00000
F7FF80
EFFFC0
1FFFE0
DFFFE0
EFFFC0
F00000
F00000
F00000
F00000
F00000
F00000
F00000
F00000
F00000
F00000
F00000
F7FF80
EFFFC0
DFFFE0
3FFFF0
3FFFF0
ENDCHAR
STARTCHAR 0055
ENCODING 85
SWIDTH 833 0
DWIDTH 30 0
BBX 22 18 4 0
BITMAP
E0000C
F0001C
F0003C
F0003C
F0003C
F0003C
F0003C
F0003C
F0003C
F0003C
F0003C
F0003C
F0003C
F7FFDC
EFFFEC
DFFFF4
3FFFF8
3FFFF0
ENDCHAR
STARTCHAR 0056
ENCODING 86
SWIDTH 833 0
DWIDTH 30 0
BBX 22 35 4 0
BITMAP
000004
C0000C
E0001C
F0003C
F0003C
F0003C
F0003C
F0003C
F0003C
F0003C
F0003C
F0003C
F0003C
F0003C
F0003C
E0001C
C0000C
E0000C
F0001C
F0003C
F0003C
F0003C
F0003C
F0003C
F0003C
F0003C
F0003C
F0003C
F0003C
F0003C
F7FFDC
EFFFEC
DFFFF4
3FFFF8
3FFFF0
ENDCHAR
STARTCHAR 0057
ENCODING 87
SWIDTH 833 0
DWIDTH 30 0
BBX 22 35 4 0
BITMAP
400004
E0000C
F0001C
F0003C
F0003C
F0003C
F0003C
F0003C
F0003C
F0003C
F0003C
F0003C
F0003C
F0003C
F7FF9C
EFFFCC
1FFFE0
DFFFEC
EFFFDC
F0003C
F0003C
F0003C
F0003C
F0003C
F0003C
F0003C
F0003C
F0003C
F0003C
F0003C
F7FFDC
EFFFEC
DFFFF4
3FFFF8
3FFFF0
ENDCHAR
STARTCHAR 0058
ENCODING 88
SWIDTH 833 0
DWIDTH 30 0
BBX 22 33 4 2
BITMAP
400004
E0000C
F0001C
F0003C
F0003C
F0003C
F0003C
F0003C
F0003C
F0003C
F0003C
F0003C
F0003C
F0003C
F7FF9C
EFFFCC
1FFFE0
DFFFEC
EFFFDC
F0003C
F0003C
F0003C
F0003C
F0003C
F0003C
F0003C
F0003C
F0003C
F0003C
F0003C
F0003C
E0001C
C0000C
ENDCHAR
STARTCHAR 0059
ENCODING 89
SWIDTH 833 0
DWIDTH 30 0
BBX 22 35 4 0
BITMAP
400004
E0000C
F0001C
F0003C
F0003C
F0003C
F0003C
F0003C
F0003C
F0003C
F0003C
F0003C
F0003C
F0003C
F7FF9C
EFFFCC
1FFFE0
1FFFEC
0FFFDC
00003C
00003C
00003C
00003C
00003C
00003C
00003C
00003C
00003C
00003C
00003C
07FFDC
0FFFEC
1FFFF4
3FFFF8
3FFFF0
ENDCHAR
STARTCHAR 005A
ENCODING 90
SWIDTH 833 0
DWIDTH 30 0
BBX 22 37 4 0
BITMAP
1FFFF0
3FFFF8
1FFFF4
1FFFEC
0FFFDC
00003C
00003C
00003C
00003C
00003C
00003C
00003C
00003C
00003C
00003C
00003C
00001C
00000C
000000
C00000
E00000
F00000
F00000
F00000
F00000
F00000
F00000
F00000
F00000
F00000
F00000
F00000
F7FFC0
EFFFE0
DFFFF0
3FFFF8
3FFFF0
ENDCHAR
STARTCHAR 005F
ENCODING 95
SWIDTH 805 0
DWIDTH 29 0
BBX 18 5 6 0
BITMAP
3FFE00
7FFF00
7FFF80
FFFFC0
FFFFC0
ENDCHAR
STARTCHAR 0061
ENCODING 97
SWIDTH 833 0
DWIDTH 30 0
BBX 22 35 4 2
BITMAP
1FFFF0
3FFFF8
5FFFF4
FFFFEC
EFFFDC
F0003C
F0003C
F0003C
F0003C
F0003C
F0003C
F0003C
F0003C
F0003C
F0003C
F0003C
F7FF9C
EFFFCC
1FFFE0
DFFFEC
EFFFDC
F0003C
F0003C
F0003C
F0003C
F0003C
F0003C
F0003C
F0003C
F0003C
F0003C
F0003C
F0003C
E0001C
C0000C
ENDCHAR
STARTCHAR 0062
ENCODING 98
SWIDTH 833 0
DWIDTH 30 0
BBX 22 35 4 0
BITMAP
400000
E00000
F00000
F00000
F00000
F00000
F00000
F00000
F00000
F00000
F00000
F00000
F00000
F00000
F7FF80
EFFFC0
1FFFE0
DFFFEC
EFFFDC
F0003C
F0003C
F0003C
F0003C
F0003C
F0003C
F0003C
F0003C
F0003C
F0003C
F0003C
F7FFDC
EFFFEC
DFFFF4
3FFFF8
3FFFF0
ENDCHAR
STARTCHAR 0063
ENCODING 99
SWIDTH 833 0
DWIDTH 30 0
BBX 20 21 4 0
BITMAP
07FF80
0FFFC0
1FFFE0
DFFFE0
EFFFC0
F00000
F00000
F00000
F00000
F00000
F00000
F00000
F00000
F00000
F00000
F00000
F7FF80
EFFFC0
DFFFE0
3FFFF0
3FFFF0
ENDCHAR
STARTCHAR 0064
ENCODING 100
SWIDTH 833 0
DWIDTH 30 0
BBX 22 35 4 0
BITMAP
000004
00000C
00001C
00003C
00003C
00003C
00003C
00003C
00003C
00003C
00003C
00003C
00003C
00003C
07FF9C
0FFFCC
1FFFE0
DFFFEC
EFFFDC
F0003C
F0003C
F0003C
F0003C
F0003C
F0003C
F0003C
F0003C
F0003C
F0003C
F0003C
F7FFDC
EFFFEC
DFFFF4
3FFFF8
3FFFF0
ENDCHAR
STARTCHAR 0065
ENCODING 101
SWIDTH 833 0
DWIDTH 30 0
BBX 21 37 4 0
BITMAP
1FFFF0
3FFFF8
7FFFF0
FFFFE0
EFFFC0
F00000
F00000
F00000
F00000
F00000
F00000
F00000
F00000
F00000
F00000
F00000
F7FF80
EFFFC0
1FFFE0
DFFFE0
EFFFC0
F00000
F00000
F00000
F00000
F00000
F00000
F00000
F00000
F00000
F00000
F00000
F7FF80
EFFFC0
DFFFE0
3FFFF0
3FFFF0
ENDCHAR
STARTCHAR 0066
ENCODING 102
SWIDTH 833 0
DWIDTH 30 0
BBX 21 35 4 2
BITMAP
1FFFF0
3FFFF8
7FFFF0
FFFFE0
EFFFC0
F00000
F00000
F00000
F00000
F00000
F00000
F00000
F00000
F00000
F00000
F00000
F7FF80
EFFFC0
1FFFE0
DFFFE0
EFFFC0
F00000
F00000
F00000
F00000
F00000
F00000
F00000
F00000
F00000
F00000
F00000
F00000
E00000
C00000
ENDCHAR
STARTCHAR 0067
ENCODING 103
SWIDTH 833 0
DWIDTH 30 0
BBX 22 37 4 0
BITMAP
1FFFF0
3FFFF8
5FFFF0
FFFFE0
EFFFC0
F00000
F00000
F00000
F00000
F00000
F00000
F00000
F00000
F00000
F00000
F00000
F00000
E00000
000000
C0000C
E0001C
F0003C
F0003C
F0003C
F0003C
F0003C
F0003C
F0003C
F0003C
F0003C
F0003C
F0003C
F7FFDC
EFFFEC
DFFFF4
3FFFF8
3FFFF0
ENDCHAR
STARTCHAR 0068
ENCODING 104
SWIDTH 833 0
DWIDTH 30 0
BBX 22 33 4 2
BITMAP
400000
E00000
F00000
F00000
F00000
F00000
F00000
F00000
F00000
F00000
F00000
F00000
F00000
F00000
F7FF80
EFFFC0
1FFFE0
DFFFEC
EFFFDC
F0003C
F0003C
F0003C
F0003C
F0003C
F0003C
F0003C
F0003C
F0003C
F0003C
F0003C
F0003C
E0001C
C0000C
ENDCHAR
STARTCHAR 0069
ENCODING 105
SWIDTH 805 0
DWIDTH 29 0
BBX 4 16 21 2
BITMAP
30
70
F0
F0
F0
F0
F0
F0
F0
F0
F0
F0
F0
70
30
10
ENDCHAR
STARTCHAR 006A
ENCODING 106
SWIDTH 833 0
DWIDTH 30 0
BBX 22 35 4 0
BITMAP
000004
00000C
00001C
00003C
00003C
00003C
00003C
00003C
00003C
00003C
00003C
00003C
00003C
00003C
00001C
00000C
000000
E0000C
F0001C
F0003C
F0003C
F0003C
F0003C
F0003C
F0003C
F0003C
F0003C
F0003C
F0003C
F0003C
F7FFDC
EFFFEC
DFFFF4
3FFFF8
3FFFF0
ENDCHAR
STARTCHAR 006B
ENCODING 107
SWIDTH 833 0
DWIDTH 30 0
BBX 22 35 4 2
BITMAP
1FFFF0
3FFFF8
5FFFF0
FFFFE0
EFFFC0
F00000
F00000
F00000
F00000
F00000
F00000
F00000
F00000
F00000
F00000
F00000
F7FF80
EFFFC0
1FFFE0
DFFFEC
EFFFDC
F0003C
F0003C
F0003C
F0003C
F0003C
F0003C
F0003C
F0003C
F0003C
F0003C
F0003C
F0003C
E0001C
C0000C
ENDCHAR
STARTCHAR 006C
ENCODING 108
SWIDTH 833 0
DWIDTH 30 0
BBX 20 34 4 1
BITMAP
C00000
E00000
F00000
F00000
F00000
F00000
F00000
F00000
F00000
F00000
F00000
F00000
F00000
F00000
E00000
C00000
E00000
F00000
F00000
F00000
F00000
F00000
F00000
F00000
F00000
F00000
F00000
F00000
F00000
F7FF80
EFFFC0
DFFFE0
3FFFF0
3FFFF0
ENDCHAR
STARTCHAR 006D
ENCODING 109
SWIDTH 833 0
DWIDTH 30 0
BBX 22 35 4 2
BITMAP
1FFFF0
3FFFF8
5FFFF4
FFFFEC
EFFFDC
F0003C
F0003C
F0003C
F0003C
F0003C
F0003C
F0003C
F0003C
F0003C
F0003C
F0003C
F0001C
E0000C
000000
E0000C
F0001C
F0003C
F0003C
F0003C
F0003C
F0003C
F0003C
F0003C
F0003C
F0003C
F0003C
F0003C
F0001C
E0000C
C00004
ENDCHAR
STARTCHAR 006E
ENCODING 110
SWIDTH 833 0
DWIDTH 30 0
BBX 22 19 4 2
BITMAP
07FF80
0FFFC0
1FFFE0
DFFFEC
EFFFDC
F0003C
F0003C
F0003C
F0003C
F0003C
F0003C
F0003C
F0003C
F0003C
F0003C
F0003C
F0003C
E0001C
C0000C
ENDCHAR
STARTCHAR 006F
ENCODING 111
SWIDTH 833 0
DWIDTH 30 0
BBX 22 21 4 0
BITMAP
07FF80
0FFFC0
1FFFE0
DFFFEC
EFFFDC
F0003C
F0003C
F0003C
F0003C
F0003C
F0003C
F0003C
F0003C
F0003C
F0003C
F0003C
F7FFDC
EFFFEC
DFFFF4
3FFFF8
3FFFF0
ENDCHAR
STARTCHAR 0070
ENCODING 112
SWIDTH 833 0
DWIDTH 30 0
BBX 22 35 4 2
BITMAP
1FFFF0
3FFFF8
5FFFF4
FFFFEC
EFFFDC
F0003C
F0003C
F0003C
F0003C
F0003C
F0003C
F0003C
F0003C
F0003C
F0003C
F0003C
F7FF9C
EFFFCC
1FFFE0
DFFFE0
EFFFC0
F00000
F00000
F00000
F00000
F00000
F00000
F00000
F00000
F00000
F00000
F00000
F00000
E00000
C00000
ENDCHAR
STARTCHAR 0071
ENCODING 113
SWIDTH 833 0
DWIDTH 30 0
BBX 22 35 4 2
BITMAP
1FFFF0
3FFFF8
5FFFF4
FFFFEC
EFFFDC
F0003C
F0003C
F0003C
F0003C
F0003C
F0003C
F0003C
F0003C
F0003C
F0003C
F0003C
F7FF9C
EFFFCC
1FFFE0
1FFFEC
0FFFDC
00003C
00003C
00003C
00003C
00003C
00003C
00003C
00003C
00003C
00003C
00003C
00003C
00001C
00000C
ENDCHAR
STARTCHAR 0072
ENCODING 114
SWIDTH 833 0
DWIDTH 30 0
BBX 19 19 4 2
BITMAP
07FF80
0FFFC0
1FFFE0
DFFFE0
EFFFC0
F00000
F00000
F00000
F00000
F00000
F00000
F00000
F00000
F00000
F00000
F00000
F00000
E00000
C00000
ENDCHAR
STARTCHAR 0073
ENCODING 115
SWIDTH 833 0
DWIDTH 30 0
BBX 22 35 4 0
BITMAP
400000
E00000
F00000
F00000
F00000
F00000
F00000
F00000
F00000
F00000
F00000
F00000
F00000
F00000
F7FF80
EFFFC0
1FFFE0
1FFFEC
0FFFDC
00003C
00003C
00003C
00003C
00003C
00003C
00003C
00003C
00003C
00003C
00003C
07FFDC
0FFFEC
1FFFF4
3FFFF8
3FFFF0
ENDCHAR
STARTCHAR 0074
ENCODING 116
SWIDTH 833 0
DWIDTH 30 0
BBX 20 35 4 0
BITMAP
400000
E00000
F00000
F00000
F00000
F00000
F00000
F00000
F00000
F00000
F00000
F00000
F00000
F00000
F7FF80
EFFFC0
1FFFE0
DFFFE0
EFFFC0
F00000
F00000
F00000
F00000
F00000
F00000
F00000
F00000
F00000
F00000
F00000
F7FF80
EFFFC0
DFFFE0
3FFFF0
3FFFF0
ENDCHAR
STARTCHAR 0075
ENCODING 117
SWIDTH 833 0
DWIDTH 30 0
BBX 22 18 4 0
BITMAP
E0000C
F0001C
F0003C
F0003C
F0003C
F0003C
F0003C
F0003C
F0003C
F0003C
F0003C
F0003C
F0003C
F7FFDC
EFFFEC
DFFFF4
3FFFF8
3FFFF0
ENDCHAR
STARTCHAR 0076
ENCODING 118
SWIDTH 833 0
DWIDTH 30 0
BBX 22 35 4 0
BITMAP
000004
C0000C
E0001C
F0003C
F0003C
F0003C
F0003C
F0003C
F0003C
F0003C
F0003C
F0003C
F0003C
F0003C
F0003C
E0001C
C0000C
E0000C
F0001C
F0003C
F0003C
F0003C
F0003C
F0003C
F0003C
F0003C
F0003C
F0003C
F0003C
F0003C
F7FFDC
EFFFEC
DFFFF4
3FFFF8
3FFFF0
ENDCHAR
STARTCHAR 0077
ENCODING 119
SWIDTH 833 0
DWIDTH 30 0
BBX 22 35 4 0
BITMAP
400004
E0000C
F0001C
F0003C
F0003C
F0003C
F0003C
F0003C
F0003C
F0003C
F0003C
F0003C
F0003C
F0003C
F7FF9C
EFFFCC
1FFFE0
DFFFEC
EFFFDC
F0003C
F0003C
F0003C
F0003C
F0003C
F0003C
F0003C
F0003C
F0003C
F0003C
F0003C
F7FFDC
EFFFEC
DFFFF4
3FFFF8
3FFFF0
ENDCHAR
STARTCHAR 0078
ENCODING 120
SWIDTH 833 0
DWIDTH 30 0
BBX 22 33 4 2
BITMAP
400004
E0000C
F0001C
F0003C
F0003C
F0003C
F0003C
F0003C
F0003C
F0003C
F0003C
F0003C
F0003C
F0003C
F7FF9C
EFFFCC
1FFFE0
DFFFEC
EFFFDC
F0003C
F0003C
F0003C
F0003C
F0003C
F0003C
F0003C
F0003C
F0003C
F0003C
F0003C
F0003C
E0001C
C0000C
ENDCHAR
STARTCHAR 0079
ENCODING 121
SWIDTH 833 0
DWIDTH 30 0
BBX 22 35 4 0
BITMAP
400004
E0000C
F0001C
F0003C
F0003C
F0003C
F0003C
F0003C
F0003C
F0003C
F0003C
F0003C
F0003C
F0003C
F7FF9C
EFFFCC
1FFFE0
1FFFEC
0FFFDC
00003C
00003C
00003C
00003C
00003C
00003C
00003C
00003C
00003C
00003C
00003C
07FFDC
0FFFEC
1FFFF4
3FFFF8
3FFFF0
ENDCHAR
STARTCHAR 007A
ENCODING 122
SWIDTH 833 0
DWIDTH 30 0
BBX 22 37 4 0
BITMAP
1FFFF0
3FFFF8
1FFFF4
1FFFEC
0FFFDC
00003C
00003C
00003C
00003C
00003C
00003C
00003C
00003C
00003C
00003C
00003C
00001C
00000C
000000
C00000
E00000
F00000
F00000
F00000
F00000
F00000
F00000
F00000
F00000
F00000
F00000
F00000
F7FFC0
EFFFE0
DFFFF0
3FFFF8
3FFFF0
ENDCHAR
STARTCHAR 00B0
ENCODING 176
SWIDTH 833 0
DWIDTH 30 0
BBX 22 21 4 16
BITMAP
1FFFF0
3FFFF8
5FFFF4
FFFFEC
EFFFDC
F0003C
F0003C
F0003C
F0003C
F0003C
F0003C
F0003C
F0003C
F0003C
F0003C
F0003C
F7FF9C
EFFFCC
1FFFE0
1FFFE0
0FFFC0
ENDCHAR
ENDFONT
