STARTFONT 2.1
COMMENT
COMMENT Converted from OpenType font "DSEG7Classic-Bold.ttf" by "otf2bdf 3.0".
COMMENT
FONT -FreeType-DSEG7 Classic-Bold-R-Normal--40-400-72-72-P-227-ISO10646-1
SIZE 40 72 72
FONTBOUNDINGBOX 31 40 -2 0
STARTPROPERTIES 19
FOUNDRY "FreeType"
FAMILY_NAME "DSEG7 Classic"
WEIGHT_NAME "Bold"
SLANT "R"
SETWIDTH_NAME "Normal"
ADD_STYLE_NAME ""
PIXEL_SIZE 40
POINT_SIZE 400
RESOLUTION_X 72
RESOLUTION_Y 72
SPACING "P"
AVERAGE_WIDTH 227
CHARSET_REGISTRY "ISO10646"
CHARSET_ENCODING "1"
FONT_ASCENT 40
FONT_DESCENT 0
COPYRIGHT "Created by Keshikan  with FontForge 2.0 (http://fontforge.sf.net)  "
_OTF_FONTFILE "DSEG7Classic-Bold.ttf"
_OTF_PSNAME "DSEG7Classic-Bold"
ENDPROPERTIES
CHARS 69
STARTCHAR 0020
ENCODING 32
SWIDTH 200 0
DWIDTH 8 0
BBX 0 0 0 0
BITMAP
ENDCHAR
STARTCHAR 0021
ENCODING 33
SWIDTH 825 0
DWIDTH 33 0
BBX 0 0 0 0
BITMAP
ENDCHAR
STARTCHAR 002D
ENCODING 45
SWIDTH 825 0
DWIDTH 33 0
BBX 19 5 7 17
BITMAP
3FFF80
7FFFC0
FFFFE0
7FFFC0
3FFF80
ENDCHAR
STARTCHAR 002E
ENCODING 46
SWIDTH 0 0
DWIDTH 0 0
BBX 5 5 -2 0
BITMAP
70
F8
F8
F8
70
ENDCHAR
STARTCHAR 0030
ENCODING 48
SWIDTH 825 0
DWIDTH 33 0
BBX 25 40 4 0
BITMAP
1FFFFC00
3FFFFE00
5FFFFD00
EFFFFB80
F7FFF780
F8000F80
F8000F80
F8000F80
F8000F80
F8000F80
F8000F80
F8000F80
F8000F80
F8000F80
F8000F80
F8000F80
F8000F80
F0000F80
E0000780
C0000380
C0000380
E0000780
F0000780
F8000F80
F8000F80
F8000F80
F8000F80
F8000F80
F8000F80
F8000F80
F8000F80
F8000F80
F8000F80
F8000F80
F8000F80
F7FFF780
EFFFFB80
5FFFFD00
3FFFFE00
1FFFFC00
ENDCHAR
STARTCHAR 0031
ENCODING 49
SWIDTH 825 0
DWIDTH 33 0
BBX 5 36 24 1
BITMAP
10
38
78
F8
F8
F8
F8
F8
F8
F8
F8
F8
F8
F8
F8
F8
78
38
00
38
78
F8
F8
F8
F8
F8
F8
F8
F8
F8
F8
F8
F8
78
38
18
ENDCHAR
STARTCHAR 0032
ENCODING 50
SWIDTH 825 0
DWIDTH 33 0
BBX 25 40 4 0
BITMAP
1FFFFC00
3FFFFE00
1FFFFD00
0FFFFB80
07FFF780
00000F80
00000F80
00000F80
00000F80
00000F80
00000F80
00000F80
00000F80
00000F80
00000F80
00000F80
00000F80
00000F80
07FFF780
0FFFFB80
1FFFFC00
EFFFF800
F7FFF000
F8000000
F8000000
F8000000
F8000000
F8000000
F8000000
F8000000
F8000000
F8000000
F8000000
F8000000
F8000000
F7FFF000
EFFFF800
5FFFFC00
3FFFFE00
1FFFFC00
ENDCHAR
STARTCHAR 0033
ENCODING 51
SWIDTH 825 0
DWIDTH 33 0
BBX 23 40 6 0
BITMAP
7FFFF0
FFFFF8
7FFFF4
3FFFEE
1FFFDE
00003E
00003E
00003E
00003E
00003E
00003E
00003E
00003E
00003E
00003E
00003E
00003E
00003E
1FFFDE
3FFFEE
7FFFF0
3FFFEE
1FFFDE
00003E
00003E
00003E
00003E
00003E
00003E
00003E
00003E
00003E
00003E
00003E
00003E
1FFFDE
3FFFEE
7FFFF4
FFFFF8
7FFFF0
ENDCHAR
STARTCHAR 0034
ENCODING 52
SWIDTH 825 0
DWIDTH 33 0
BBX 25 35 4 2
BITMAP
C0000180
E0000380
F0000780
F8000F80
F8000F80
F8000F80
F8000F80
F8000F80
F8000F80
F8000F80
F8000F80
F8000F80
F8000F80
F8000F80
F8000F80
F7FFF780
EFFFFB80
1FFFFC00
0FFFFB80
07FFF780
00000F80
00000F80
00000F80
00000F80
00000F80
00000F80
00000F80
00000F80
00000F80
00000F80
00000F80
00000F80
00000780
00000380
00000180
ENDCHAR
STARTCHAR 0035
ENCODING 53
SWIDTH 825 0
DWIDTH 33 0
BBX 25 40 4 0
BITMAP
1FFFFC00
3FFFFE00
5FFFFC00
EFFFF800
F7FFF000
F8000000
F8000000
F8000000
F8000000
F8000000
F8000000
F8000000
F8000000
F8000000
F8000000
F8000000
F8000000
F8000000
F7FFF000
EFFFF800
1FFFFC00
0FFFFB80
07FFF780
00000F80
00000F80
00000F80
00000F80
00000F80
00000F80
00000F80
00000F80
00000F80
00000F80
00000F80
00000F80
07FFF780
0FFFFB80
1FFFFD00
3FFFFE00
1FFFFC00
ENDCHAR
STARTCHAR 0036
ENCODING 54
SWIDTH 825 0
DWIDTH 33 0
BBX 25 40 4 0
BITMAP
1FFFFC00
3FFFFE00
5FFFFC00
EFFFF800
F7FFF000
F8000000
F8000000
F8000000
F8000000
F8000000
F8000000
F8000000
F8000000
F8000000
F8000000
F8000000
F8000000
F8000000
F7FFF000
EFFFF800
1FFFFC00
EFFFFB80
F7FFF780
F8000F80
F8000F80
F8000F80
F8000F80
F8000F80
F8000F80
F8000F80
F8000F80
F8000F80
F8000F80
F8000F80
F8000F80
F7FFF780
EFFFFB80
5FFFFD00
3FFFFE00
1FFFFC00
ENDCHAR
STARTCHAR 0037
ENCODING 55
SWIDTH 825 0
DWIDTH 33 0
BBX 25 38 4 2
BITMAP
1FFFFC00
3FFFFE00
5FFFFD00
EFFFFB80
F7FFF780
F8000F80
F8000F80
F8000F80
F8000F80
F8000F80
F8000F80
F8000F80
F8000F80
F8000F80
F8000F80
F8000F80
F8000F80
F0000780
E0000380
C0000180
00000380
00000780
00000F80
00000F80
00000F80
00000F80
00000F80
00000F80
00000F80
00000F80
00000F80
00000F80
00000F80
00000F80
00000F80
00000780
00000380
00000100
ENDCHAR
STARTCHAR 0038
ENCODING 56
SWIDTH 825 0
DWIDTH 33 0
BBX 25 40 4 0
BITMAP
1FFFFC00
3FFFFE00
5FFFFD00
EFFFFB80
F7FFF780
F8000F80
F8000F80
F8000F80
F8000F80
F8000F80
F8000F80
F8000F80
F8000F80
F8000F80
F8000F80
F8000F80
F8000F80
F8000F80
F7FFF780
EFFFFB80
1FFFFC00
EFFFFB80
F7FFF780
F8000F80
F8000F80
F8000F80
F8000F80
F8000F80
F8000F80
F8000F80
F8000F80
F8000F80
F8000F80
F8000F80
F8000F80
F7FFF780
EFFFFB80
5FFFFD00
3FFFFE00
1FFFFC00
ENDCHAR
STARTCHAR 0039
ENCODING 57
SWIDTH 825 0
DWIDTH 33 0
BBX 25 40 4 0
BITMAP
1FFFFC00
3FFFFE00
5FFFFD00
EFFFFB80
F7FFF780
F8000F80
F8000F80
F8000F80
F8000F80
F8000F80
F8000F80
F8000F80
F8000F80
F8000F80
F8000F80
F8000F80
F8000F80
F8000F80
F7FFF780
EFFFFB80
1FFFFC00
0FFFFB80
07FFF780
00000F80
00000F80
00000F80
00000F80
00000F80
00000F80
00000F80
00000F80
00000F80
00000F80
00000F80
00000F80
07FFF780
0FFFFB80
1FFFFD00
3FFFFE00
1FFFFC00
ENDCHAR
STARTCHAR 003A
ENCODING 58
SWIDTH 200 0
DWIDTH 8 0
BBX 5 21 2 9
BITMAP
70
F8
F8
F8
70
00
00
00
00
00
00
00
00
00
00
00
70
F8
F8
F8
70
ENDCHAR
STARTCHAR 0041
ENCODING 65
SWIDTH 825 0
DWIDTH 33 0
BBX 25 37 4 1
BITMAP
1FFFFC00
3FFFFE00
5FFFFD00
EFFFFB80
F7FFF780
F8000F80
F8000F80
F8000F80
F8000F80
F8000F80
F8000F80
F8000F80
F8000F80
F8000F80
F8000F80
F8000F80
F8000F80
F7FFF780
EFFFFB80
1FFFFC00
EFFFFB80
F7FFF780
F8000F80
F8000F80
F8000F80
F8000F80
F8000F80
F8000F80
F8000F80
F8000F80
F8000F80
F8000F80
F8000F80
F8000F80
F0000780
E0000380
C0000180
ENDCHAR
STARTCHAR 0042
ENCODING 66
SWIDTH 825 0
DWIDTH 33 0
BBX 25 37 4 1
BITMAP
C0000000
E0000000
F0000000
F8000000
F8000000
F8000000
F8000000
F8000000
F8000000
F8000000
F8000000
F8000000
F8000000
F8000000
F8000000
F7FFF000
EFFFF800
1FFFFC00
EFFFFB80
F7FFF780
F8000F80
F8000F80
F8000F80
F8000F80
F8000F80
F8000F80
F8000F80
F8000F80
F8000F80
F8000F80
F8000F80
F8000F80
F7FFF780
EFFFFB80
5FFFFD00
3FFFFE00
1FFFFC00
ENDCHAR
STARTCHAR 0043
ENCODING 67
SWIDTH 825 0
DWIDTH 33 0
BBX 23 22 4 0
BITMAP
07FFF0
0FFFF8
1FFFFC
EFFFF8
F7FFF0
F80000
F80000
F80000
F80000
F80000
F80000
F80000
F80000
F80000
F80000
F80000
F80000
F7FFF0
EFFFF8
5FFFFC
3FFFFE
1FFFFC
ENDCHAR
STARTCHAR 0044
ENCODING 68
SWIDTH 825 0
DWIDTH 33 0
BBX 25 37 4 1
BITMAP
00000180
00000380
00000780
00000F80
00000F80
00000F80
00000F80
00000F80
00000F80
00000F80
00000F80
00000F80
00000F80
00000F80
00000F80
07FFF780
0FFFFB80
1FFFFC00
EFFFFB80
F7FFF780
F8000F80
F8000F80
F8000F80
F8000F80
F8000F80
F8000F80
F8000F80
F8000F80
F8000F80
F8000F80
F8000F80
F8000F80
F7FFF780
EFFFFB80
5FFFFD00
3FFFFE00
1FFFFC00
ENDCHAR
STARTCHAR 0045
ENCODING 69
SWIDTH 825 0
DWIDTH 33 0
BBX 23 40 4 0
BITMAP
1FFFFC
3FFFFE
5FFFFC
EFFFF8
F7FFF0
F80000
F80000
F80000
F80000
F80000
F80000
F80000
F80000
F80000
F80000
F80000
F80000
F80000
F7FFF0
EFFFF8
1FFFFC
EFFFF8
F7FFF0
F80000
F80000
F80000
F80000
F80000
F80000
F80000
F80000
F80000
F80000
F80000
F80000
F7FFF0
EFFFF8
5FFFFC
3FFFFE
1FFFFC
ENDCHAR
STARTCHAR 0046
ENCODING 70
SWIDTH 825 0
DWIDTH 33 0
BBX 23 37 4 1
BITMAP
1FFFFC
3FFFFE
5FFFFC
EFFFF8
F7FFF0
F80000
F80000
F80000
F80000
F80000
F80000
F80000
F80000
F80000
F80000
F80000
F80000
F7FFF0
EFFFF8
1FFFFC
EFFFF8
F7FFF0
F80000
F80000
F80000
F80000
F80000
F80000
F80000
F80000
F80000
F80000
F80000
F80000
F00000
E00000
C00000
ENDCHAR
STARTCHAR 0047
ENCODING 71
SWIDTH 825 0
DWIDTH 33 0
BBX 25 40 4 0
BITMAP
1FFFFC00
3FFFFE00
5FFFFC00
EFFFF800
F7FFF000
F8000000
F8000000
F8000000
F8000000
F8000000
F8000000
F8000000
F8000000
F8000000
F8000000
F8000000
F8000000
F0000000
E0000000
C0000000
C0000380
E0000780
F0000780
F8000F80
F8000F80
F8000F80
F8000F80
F8000F80
F8000F80
F8000F80
F8000F80
F8000F80
F8000F80
F8000F80
F8000F80
F7FFF780
EFFFFB80
5FFFFD00
3FFFFE00
1FFFFC00
ENDCHAR
STARTCHAR 0048
ENCODING 72
SWIDTH 825 0
DWIDTH 33 0
BBX 25 35 4 2
BITMAP
C0000000
E0000000
F0000000
F8000000
F8000000
F8000000
F8000000
F8000000
F8000000
F8000000
F8000000
F8000000
F8000000
F8000000
F8000000
F7FFF000
EFFFF800
1FFFFC00
EFFFFB80
F7FFF780
F8000F80
F8000F80
F8000F80
F8000F80
F8000F80
F8000F80
F8000F80
F8000F80
F8000F80
F8000F80
F8000F80
F8000F80
F0000780
E0000380
C0000180
ENDCHAR
STARTCHAR 0049
ENCODING 73
SWIDTH 825 0
DWIDTH 33 0
BBX 5 17 24 1
BITMAP
38
78
F8
F8
F8
F8
F8
F8
F8
F8
F8
F8
F8
F8
78
38
18
ENDCHAR
STARTCHAR 004A
ENCODING 74
SWIDTH 825 0
DWIDTH 33 0
BBX 25 38 4 0
BITMAP
00000100
00000380
00000780
00000F80
00000F80
00000F80
00000F80
00000F80
00000F80
00000F80
00000F80
00000F80
00000F80
00000F80
00000F80
00000780
00000380
00000180
C0000380
E0000380
F0000780
F8000F80
F8000F80
F8000F80
F8000F80
F8000F80
F8000F80
F8000F80
F8000F80
F8000F80
F8000F80
F8000F80
F8000F80
F7FFF780
EFFFFB80
5FFFFD00
3FFFFE00
1FFFFC00
ENDCHAR
STARTCHAR 004B
ENCODING 75
SWIDTH 825 0
DWIDTH 33 0
BBX 25 37 4 1
BITMAP
1FFFFC00
3FFFFE00
5FFFFC00
EFFFF800
F7FFF000
F8000000
F8000000
F8000000
F8000000
F8000000
F8000000
F8000000
F8000000
F8000000
F8000000
F8000000
F8000000
F7FFF000
EFFFF800
1FFFFC00
EFFFFB80
F7FFF780
F8000F80
F8000F80
F8000F80
F8000F80
F8000F80
F8000F80
F8000F80
F8000F80
F8000F80
F8000F80
F8000F80
F8000F80
F0000780
E0000380
C0000180
ENDCHAR
STARTCHAR 004C
ENCODING 76
SWIDTH 825 0
DWIDTH 33 0
BBX 23 38 4 0
BITMAP
400000
E00000
F00000
F80000
F80000
F80000
F80000
F80000
F80000
F80000
F80000
F80000
F80000
F80000
F80000
F00000
E00000
C00000
C00000
E00000
F00000
F80000
F80000
F80000
F80000
F80000
F80000
F80000
F80000
F80000
F80000
F80000
F80000
F7FFF0
EFFFF8
5FFFFC
3FFFFE
1FFFFC
ENDCHAR
STARTCHAR 004D
ENCODING 77
SWIDTH 825 0
DWIDTH 33 0
BBX 25 38 4 2
BITMAP
1FFFFC00
3FFFFE00
5FFFFD00
EFFFFB80
F7FFF780
F8000F80
F8000F80
F8000F80
F8000F80
F8000F80
F8000F80
F8000F80
F8000F80
F8000F80
F8000F80
F8000F80
F8000F80
F8000F80
F0000780
E0000380
C0000380
E0000380
F0000780
F8000F80
F8000F80
F8000F80
F8000F80
F8000F80
F8000F80
F8000F80
F8000F80
F8000F80
F8000F80
F8000F80
F8000F80
F0000780
E0000380
40000100
ENDCHAR
STARTCHAR 004E
ENCODING 78
SWIDTH 825 0
DWIDTH 33 0
BBX 25 20 4 1
BITMAP
07FFF000
0FFFF800
1FFFFC00
EFFFFB80
F7FFF780
F8000F80
F8000F80
F8000F80
F8000F80
F8000F80
F8000F80
F8000F80
F8000F80
F8000F80
F8000F80
F8000F80
F8000F80
F0000780
E0000380
C0000180
ENDCHAR
STARTCHAR 004F
ENCODING 79
SWIDTH 825 0
DWIDTH 33 0
BBX 25 22 4 0
BITMAP
07FFF000
0FFFF800
1FFFFC00
EFFFFB80
F7FFF780
F8000F80
F8000F80
F8000F80
F8000F80
F8000F80
F8000F80
F8000F80
F8000F80
F8000F80
F8000F80
F8000F80
F8000F80
F7FFF780
EFFFFB80
5FFFFD00
3FFFFE00
1FFFFC00
ENDCHAR
STARTCHAR 0050
ENCODING 80
SWIDTH 825 0
DWIDTH 33 0
BBX 25 37 4 1
BITMAP
1FFFFC00
3FFFFE00
5FFFFD00
EFFFFB80
F7FFF780
F8000F80
F8000F80
F8000F80
F8000F80
F8000F80
F8000F80
F8000F80
F8000F80
F8000F80
F8000F80
F8000F80
F8000F80
F7FFF780
EFFFFB80
1FFFFC00
EFFFF800
F7FFF000
F8000000
F8000000
F8000000
F8000000
F8000000
F8000000
F8000000
F8000000
F8000000
F8000000
F8000000
F8000000
F0000000
E0000000
C0000000
ENDCHAR
STARTCHAR 0051
ENCODING 81
SWIDTH 825 0
DWIDTH 33 0
BBX 25 37 4 1
BITMAP
1FFFFC00
3FFFFE00
5FFFFD00
EFFFFB80
F7FFF780
F8000F80
F8000F80
F8000F80
F8000F80
F8000F80
F8000F80
F8000F80
F8000F80
F8000F80
F8000F80
F8000F80
F8000F80
F7FFF780
EFFFFB80
1FFFFC00
0FFFFB80
07FFF780
00000F80
00000F80
00000F80
00000F80
00000F80
00000F80
00000F80
00000F80
00000F80
00000F80
00000F80
00000F80
00000780
00000380
00000180
ENDCHAR
STARTCHAR 0052
ENCODING 82
SWIDTH 825 0
DWIDTH 33 0
BBX 22 20 4 1
BITMAP
07FFF0
0FFFF8
1FFFFC
EFFFF8
F7FFF0
F80000
F80000
F80000
F80000
F80000
F80000
F80000
F80000
F80000
F80000
F80000
F80000
F00000
E00000
C00000
ENDCHAR
STARTCHAR 0053
ENCODING 83
SWIDTH 825 0
DWIDTH 33 0
BBX 25 37 4 1
BITMAP
C0000000
E0000000
F0000000
F8000000
F8000000
F8000000
F8000000
F8000000
F8000000
F8000000
F8000000
F8000000
F8000000
F8000000
F8000000
F7FFF000
EFFFF800
1FFFFC00
0FFFFB80
07FFF780
00000F80
00000F80
00000F80
00000F80
00000F80
00000F80
00000F80
00000F80
00000F80
00000F80
00000F80
00000F80
07FFF780
0FFFFB80
1FFFFD00
3FFFFE00
1FFFFC00
ENDCHAR
STARTCHAR 0054
ENCODING 84
SWIDTH 825 0
DWIDTH 33 0
BBX 23 37 4 1
BITMAP
C00000
E00000
F00000
F80000
F80000
F80000
F80000
F80000
F80000
F80000
F80000
F80000
F80000
F80000
F80000
F7FFF0
EFFFF8
1FFFFC
EFFFF8
F7FFF0
F80000
F80000
F80000
F80000
F80000
F80000
F80000
F80000
F80000
F80000
F80000
F80000
F7FFF0
EFFFF8
5FFFFC
3FFFFE
1FFFFC
ENDCHAR
STARTCHAR 0055
ENCODING 85
SWIDTH 825 0
DWIDTH 33 0
BBX 25 20 4 0
BITMAP
C0000380
E0000380
F0000780
F8000F80
F8000F80
F8000F80
F8000F80
F8000F80
F8000F80
F8000F80
F8000F80
F8000F80
F8000F80
F8000F80
F8000F80
F7FFF780
EFFFFB80
5FFFFD00
3FFFFE00
1FFFFC00
ENDCHAR
STARTCHAR 0056
ENCODING 86
SWIDTH 825 0
DWIDTH 33 0
BBX 25 38 4 0
BITMAP
40000100
E0000380
F0000780
F8000F80
F8000F80
F8000F80
F8000F80
F8000F80
F8000F80
F8000F80
F8000F80
F8000F80
F8000F80
F8000F80
F8000F80
F0000780
E0000380
C0000180
C0000380
E0000380
F0000780
F8000F80
F8000F80
F8000F80
F8000F80
F8000F80
F8000F80
F8000F80
F8000F80
F8000F80
F8000F80
F8000F80
F8000F80
F7FFF780
EFFFFB80
5FFFFD00
3FFFFE00
1FFFFC00
ENDCHAR
STARTCHAR 0057
ENCODING 87
SWIDTH 825 0
DWIDTH 33 0
BBX 25 37 4 1
BITMAP
C0000180
E0000380
F0000780
F8000F80
F8000F80
F8000F80
F8000F80
F8000F80
F8000F80
F8000F80
F8000F80
F8000F80
F8000F80
F8000F80
F8000F80
F7FFF780
EFFFFB80
1FFFFC00
EFFFFB80
F7FFF780
F8000F80
F8000F80
F8000F80
F8000F80
F8000F80
F8000F80
F8000F80
F8000F80
F8000F80
F8000F80
F8000F80
F8000F80
F7FFF780
EFFFFB80
5FFFFD00
3FFFFE00
1FFFFC00
ENDCHAR
STARTCHAR 0058
ENCODING 88
SWIDTH 825 0
DWIDTH 33 0
BBX 25 35 4 2
BITMAP
C0000180
E0000380
F0000780
F8000F80
F8000F80
F8000F80
F8000F80
F8000F80
F8000F80
F8000F80
F8000F80
F8000F80
F8000F80
F8000F80
F8000F80
F7FFF780
EFFFFB80
1FFFFC00
EFFFFB80
F7FFF780
F8000F80
F8000F80
F8000F80
F8000F80
F8000F80
F8000F80
F8000F80
F8000F80
F8000F80
F8000F80
F8000F80
F8000F80
F0000780
E0000380
C0000180
ENDCHAR
STARTCHAR 0059
ENCODING 89
SWIDTH 825 0
DWIDTH 33 0
BBX 25 37 4 1
BITMAP
C0000180
E0000380
F0000780
F8000F80
F8000F80
F8000F80
F8000F80
F8000F80
F8000F80
F8000F80
F8000F80
F8000F80
F8000F80
F8000F80
F8000F80
F7FFF780
EFFFFB80
1FFFFC00
0FFFFB80
07FFF780
00000F80
00000F80
00000F80
00000F80
00000F80
00000F80
00000F80
00000F80
00000F80
00000F80
00000F80
00000F80
07FFF780
0FFFFB80
1FFFFD00
3FFFFE00
1FFFFC00
ENDCHAR
STARTCHAR 005A
ENCODING 90
SWIDTH 825 0
DWIDTH 33 0
BBX 25 40 4 0
BITMAP
1FFFFC00
3FFFFE00
1FFFFD00
0FFFFB80
07FFF780
00000F80
00000F80
00000F80
00000F80
00000F80
00000F80
00000F80
00000F80
00000F80
00000F80
00000F80
00000F80
00000F80
00000780
00000380
C0000000
E0000000
F0000000
F8000000
F8000000
F8000000
F8000000
F8000000
F8000000
F8000000
F8000000
F8000000
F8000000
F8000000
F8000000
F7FFF000
EFFFF800
5FFFFC00
3FFFFE00
1FFFFC00
ENDCHAR
STARTCHAR 005F
ENCODING 95
SWIDTH 825 0
DWIDTH 33 0
BBX 21 5 6 0
BITMAP
1FFFC0
3FFFE0
7FFFF0
FFFFF8
FFFFF0
ENDCHAR
STARTCHAR 0061
ENCODING 97
SWIDTH 825 0
DWIDTH 33 0
BBX 25 37 4 1
BITMAP
1FFFFC00
3FFFFE00
5FFFFD00
EFFFFB80
F7FFF780
F8000F80
F8000F80
F8000F80
F8000F80
F8000F80
F8000F80
F8000F80
F8000F80
F8000F80
F8000F80
F8000F80
F8000F80
F7FFF780
EFFFFB80
1FFFFC00
EFFFFB80
F7FFF780
F8000F80
F8000F80
F8000F80
F8000F80
F8000F80
F8000F80
F8000F80
F8000F80
F8000F80
F8000F80
F8000F80
F8000F80
F0000780
E0000380
C0000180
ENDCHAR
STARTCHAR 0062
ENCODING 98
SWIDTH 825 0
DWIDTH 33 0
BBX 25 37 4 1
BITMAP
C0000000
E0000000
F0000000
F8000000
F8000000
F8000000
F8000000
F8000000
F8000000
F8000000
F8000000
F8000000
F8000000
F8000000
F8000000
F7FFF000
EFFFF800
1FFFFC00
EFFFFB80
F7FFF780
F8000F80
F8000F80
F8000F80
F8000F80
F8000F80
F8000F80
F8000F80
F8000F80
F8000F80
F8000F80
F8000F80
F8000F80
F7FFF780
EFFFFB80
5FFFFD00
3FFFFE00
1FFFFC00
ENDCHAR
STARTCHAR 0063
ENCODING 99
SWIDTH 825 0
DWIDTH 33 0
BBX 23 22 4 0
BITMAP
07FFF0
0FFFF8
1FFFFC
EFFFF8
F7FFF0
F80000
F80000
F80000
F80000
F80000
F80000
F80000
F80000
F80000
F80000
F80000
F80000
F7FFF0
EFFFF8
5FFFFC
3FFFFE
1FFFFC
ENDCHAR
STARTCHAR 0064
ENCODING 100
SWIDTH 825 0
DWIDTH 33 0
BBX 25 37 4 1
BITMAP
00000180
00000380
00000780
00000F80
00000F80
00000F80
00000F80
00000F80
00000F80
00000F80
00000F80
00000F80
00000F80
00000F80
00000F80
07FFF780
0FFFFB80
1FFFFC00
EFFFFB80
F7FFF780
F8000F80
F8000F80
F8000F80
F8000F80
F8000F80
F8000F80
F8000F80
F8000F80
F8000F80
F8000F80
F8000F80
F8000F80
F7FFF780
EFFFFB80
5FFFFD00
3FFFFE00
1FFFFC00
ENDCHAR
STARTCHAR 0065
ENCODING 101
SWIDTH 825 0
DWIDTH 33 0
BBX 23 40 4 0
BITMAP
1FFFFC
3FFFFE
5FFFFC
EFFFF8
F7FFF0
F80000
F80000
F80000
F80000
F80000
F80000
F80000
F80000
F80000
F80000
F80000
F80000
F80000
F7FFF0
EFFFF8
1FFFFC
EFFFF8
F7FFF0
F80000
F80000
F80000
F80000
F80000
F80000
F80000
F80000
F80000
F80000
F80000
F80000
F7FFF0
EFFFF8
5FFFFC
3FFFFE
1FFFFC
ENDCHAR
STARTCHAR 0066
ENCODING 102
SWIDTH 825 0
DWIDTH 33 0
BBX 23 37 4 1
BITMAP
1FFFFC
3FFFFE
5FFFFC
EFFFF8
F7FFF0
F80000
F80000
F80000
F80000
F80000
F80000
F80000
F80000
F80000
F80000
F80000
F80000
F7FFF0
EFFFF8
1FFFFC
EFFFF8
F7FFF0
F80000
F80000
F80000
F80000
F80000
F80000
F80000
F80000
F80000
F80000
F80000
F80000
F00000
E00000
C00000
ENDCHAR
STARTCHAR 0067
ENCODING 103
SWIDTH 825 0
DWIDTH 33 0
BBX 25 40 4 0
BITMAP
1FFFFC00
3FFFFE00
5FFFFC00
EFFFF800
F7FFF000
F8000000
F8000000
F8000000
F8000000
F8000000
F8000000
F8000000
F8000000
F8000000
F8000000
F8000000
F8000000
F0000000
E0000000
C0000000
C0000380
E0000780
F0000780
F8000F80
F8000F80
F8000F80
F8000F80
F8000F80
F8000F80
F8000F80
F8000F80
F8000F80
F8000F80
F8000F80
F8000F80
F7FFF780
EFFFFB80
5FFFFD00
3FFFFE00
1FFFFC00
ENDCHAR
STARTCHAR 0068
ENCODING 104
SWIDTH 825 0
DWIDTH 33 0
BBX 25 35 4 2
BITMAP
C0000000
E0000000
F0000000
F8000000
F8000000
F8000000
F8000000
F8000000
F8000000
F8000000
F8000000
F8000000
F8000000
F8000000
F8000000
F7FFF000
EFFFF800
1FFFFC00
EFFFFB80
F7FFF780
F8000F80
F8000F80
F8000F80
F8000F80
F8000F80
F8000F80
F8000F80
F8000F80
F8000F80
F8000F80
F8000F80
F8000F80
F0000780
E0000380
C0000180
ENDCHAR
STARTCHAR 0069
ENCODING 105
SWIDTH 825 0
DWIDTH 33 0
BBX 5 17 24 1
BITMAP
38
78
F8
F8
F8
F8
F8
F8
F8
F8
F8
F8
F8
F8
78
38
18
ENDCHAR
STARTCHAR 006A
ENCODING 106
SWIDTH 825 0
DWIDTH 33 0
BBX 25 38 4 0
BITMAP
00000100
00000380
00000780
00000F80
00000F80
00000F80
00000F80
00000F80
00000F80
00000F80
00000F80
00000F80
00000F80
00000F80
00000F80
00000780
00000380
00000180
C0000380
E0000380
F0000780
F8000F80
F8000F80
F8000F80
F8000F80
F8000F80
F8000F80
F8000F80
F8000F80
F8000F80
F8000F80
F8000F80
F8000F80
F7FFF780
EFFFFB80
5FFFFD00
3FFFFE00
1FFFFC00
ENDCHAR
STARTCHAR 006B
ENCODING 107
SWIDTH 825 0
DWIDTH 33 0
BBX 25 37 4 1
BITMAP
1FFFFC00
3FFFFE00
5FFFFC00
EFFFF800
F7FFF000
F8000000
F8000000
F8000000
F8000000
F8000000
F8000000
F8000000
F8000000
F8000000
F8000000
F8000000
F8000000
F7FFF000
EFFFF800
1FFFFC00
EFFFFB80
F7FFF780
F8000F80
F8000F80
F8000F80
F8000F80
F8000F80
F8000F80
F8000F80
F8000F80
F8000F80
F8000F80
F8000F80
F8000F80
F0000780
E0000380
C0000180
ENDCHAR
STARTCHAR 006C
ENCODING 108
SWIDTH 825 0
DWIDTH 33 0
BBX 23 38 4 0
BITMAP
400000
E00000
F00000
F80000
F80000
F80000
F80000
F80000
F80000
F80000
F80000
F80000
F80000
F80000
F80000
F00000
E00000
C00000
C00000
E00000
F00000
F80000
F80000
F80000
F80000
F80000
F80000
F80000
F80000
F80000
F80000
F80000
F80000
F7FFF0
EFFFF8
5FFFFC
3FFFFE
1FFFFC
ENDCHAR
STARTCHAR 006D
ENCODING 109
SWIDTH 825 0
DWIDTH 33 0
BBX 25 38 4 2
BITMAP
1FFFFC00
3FFFFE00
5FFFFD00
EFFFFB80
F7FFF780
F8000F80
F8000F80
F8000F80
F8000F80
F8000F80
F8000F80
F8000F80
F8000F80
F8000F80
F8000F80
F8000F80
F8000F80
F8000F80
F0000780
E0000380
C0000380
E0000380
F0000780
F8000F80
F8000F80
F8000F80
F8000F80
F8000F80
F8000F80
F8000F80
F8000F80
F8000F80
F8000F80
F8000F80
F8000F80
F0000780
E0000380
40000100
ENDCHAR
STARTCHAR 006E
ENCODING 110
SWIDTH 825 0
DWIDTH 33 0
BBX 25 20 4 1
BITMAP
07FFF000
0FFFF800
1FFFFC00
EFFFFB80
F7FFF780
F8000F80
F8000F80
F8000F80
F8000F80
F8000F80
F8000F80
F8000F80
F8000F80
F8000F80
F8000F80
F8000F80
F8000F80
F0000780
E0000380
C0000180
ENDCHAR
STARTCHAR 006F
ENCODING 111
SWIDTH 825 0
DWIDTH 33 0
BBX 25 22 4 0
BITMAP
07FFF000
0FFFF800
1FFFFC00
EFFFFB80
F7FFF780
F8000F80
F8000F80
F8000F80
F8000F80
F8000F80
F8000F80
F8000F80
F8000F80
F8000F80
F8000F80
F8000F80
F8000F80
F7FFF780
EFFFFB80
5FFFFD00
3FFFFE00
1FFFFC00
ENDCHAR
STARTCHAR 0070
ENCODING 112
SWIDTH 825 0
DWIDTH 33 0
BBX 25 37 4 1
BITMAP
1FFFFC00
3FFFFE00
5FFFFD00
EFFFFB80
F7FFF780
F8000F80
F8000F80
F8000F80
F8000F80
F8000F80
F8000F80
F8000F80
F8000F80
F8000F80
F8000F80
F8000F80
F8000F80
F7FFF780
EFFFFB80
1FFFFC00
EFFFF800
F7FFF000
F8000000
F8000000
F8000000
F8000000
F8000000
F8000000
F8000000
F8000000
F8000000
F8000000
F8000000
F8000000
F0000000
E0000000
C0000000
ENDCHAR
STARTCHAR 0071
ENCODING 113
SWIDTH 825 0
DWIDTH 33 0
BBX 25 37 4 1
BITMAP
1FFFFC00
3FFFFE00
5FFFFD00
EFFFFB80
F7FFF780
F8000F80
F8000F80
F8000F80
F8000F80
F8000F80
F8000F80
F8000F80
F8000F80
F8000F80
F8000F80
F8000F80
F8000F80
F7FFF780
EFFFFB80
1FFFFC00
0FFFFB80
07FFF780
00000F80
00000F80
00000F80
00000F80
00000F80
00000F80
00000F80
00000F80
00000F80
00000F80
00000F80
00000F80
00000780
00000380
00000180
ENDCHAR
STARTCHAR 0072
ENCODING 114
SWIDTH 825 0
DWIDTH 33 0
BBX 22 20 4 1
BITMAP
07FFF0
0FFFF8
1FFFFC
EFFFF8
F7FFF0
F80000
F80000
F80000
F80000
F80000
F80000
F80000
F80000
F80000
F80000
F80000
F80000
F00000
E00000
C00000
ENDCHAR
STARTCHAR 0073
ENCODING 115
SWIDTH 825 0
DWIDTH 33 0
BBX 25 37 4 1
BITMAP
C0000000
E0000000
F0000000
F8000000
F8000000
F8000000
F8000000
F8000000
F8000000
F8000000
F8000000
F8000000
F8000000
F8000000
F8000000
F7FFF000
EFFFF800
1FFFFC00
0FFFFB80
07FFF780
00000F80
00000F80
00000F80
00000F80
00000F80
00000F80
00000F80
00000F80
00000F80
00000F80
00000F80
00000F80
07FFF780
0FFFFB80
1FFFFD00
3FFFFE00
1FFFFC00
ENDCHAR
STARTCHAR 0074
ENCODING 116
SWIDTH 825 0
DWIDTH 33 0
BBX 23 37 4 1
BITMAP
C00000
E00000
F00000
F80000
F80000
F80000
F80000
F80000
F80000
F80000
F80000
F80000
F80000
F80000
F80000
F7FFF0
EFFFF8
1FFFFC
EFFFF8
F7FFF0
F80000
F80000
F80000
F80000
F80000
F80000
F80000
F80000
F80000
F80000
F80000
F80000
F7FFF0
EFFFF8
5FFFFC
3FFFFE
1FFFFC
ENDCHAR
STARTCHAR 0075
ENCODING 117
SWIDTH 825 0
DWIDTH 33 0
BBX 25 20 4 0
BITMAP
C0000380
E0000380
F0000780
F8000F80
F8000F80
F8000F80
F8000F80
F8000F80
F8000F80
F8000F80
F8000F80
F8000F80
F8000F80
F8000F80
F8000F80
F7FFF780
EFFFFB80
5FFFFD00
3FFFFE00
1FFFFC00
ENDCHAR
STARTCHAR 0076
ENCODING 118
SWIDTH 825 0
DWIDTH 33 0
BBX 25 38 4 0
BITMAP
40000100
E0000380
F0000780
F8000F80
F8000F80
F8000F80
F8000F80
F8000F80
F8000F80
F8000F80
F8000F80
F8000F80
F8000F80
F8000F80
F8000F80
F0000780
E0000380
C0000180
C0000380
E0000380
F0000780
F8000F80
F8000F80
F8000F80
F8000F80
F8000F80
F8000F80
F8000F80
F8000F80
F8000F80
F8000F80
F8000F80
F8000F80
F7FFF780
EFFFFB80
5FFFFD00
3FFFFE00
1FFFFC00
ENDCHAR
STARTCHAR 0077
ENCODING 119
SWIDTH 825 0
DWIDTH 33 0
BBX 25 37 4 1
BITMAP
C0000180
E0000380
F0000780
F8000F80
F8000F80
F8000F80
F8000F80
F8000F80
F8000F80
F8000F80
F8000F80
F8000F80
F8000F80
F8000F80
F8000F80
F7FFF780
EFFFFB80
1FFFFC00
EFFFFB80
F7FFF780
F8000F80
F8000F80
F8000F80
F8000F80
F8000F80
F8000F80
F8000F80
F8000F80
F8000F80
F8000F80
F8000F80
F8000F80
F7FFF780
EFFFFB80
5FFFFD00
3FFFFE00
1FFFFC00
ENDCHAR
STARTCHAR 0078
ENCODING 120
SWIDTH 825 0
DWIDTH 33 0
BBX 25 35 4 2
BITMAP
C0000180
E0000380
F0000780
F8000F80
F8000F80
F8000F80
F8000F80
F8000F80
F8000F80
F8000F80
F8000F80
F8000F80
F8000F80
F8000F80
F8000F80
F7FFF780
EFFFFB80
1FFFFC00
EFFFFB80
F7FFF780
F8000F80
F8000F80
F8000F80
F8000F80
F8000F80
F8000F80
F8000F80
F8000F80
F8000F80
F8000F80
F8000F80
F8000F80
F0000780
E0000380
C0000180
ENDCHAR
STARTCHAR 0079
ENCODING 121
SWIDTH 825 0
DWIDTH 33 0
BBX 25 37 4 1
BITMAP
C0000180
E0000380
F0000780
F8000F80
F8000F80
F8000F80
F8000F80
F8000F80
F8000F80
F8000F80
F8000F80
F8000F80
F8000F80
F8000F80
F8000F80
F7FFF780
EFFFFB80
1FFFFC00
0FFFFB80
07FFF780
00000F80
00000F80
00000F80
00000F80
00000F80
00000F80
00000F80
00000F80
00000F80
00000F80
00000F80
00000F80
07FFF780
0FFFFB80
1FFFFD00
3FFFFE00
1FFFFC00
ENDCHAR
STARTCHAR 007A
ENCODING 122
SWIDTH 825 0
DWIDTH 33 0
BBX 25 40 4 0
BITMAP
1FFFFC00
3FFFFE00
1FFFFD00
0FFFFB80
07FFF780
00000F80
00000F80
00000F80
00000F80
00000F80
00000F80
00000F80
00000F80
00000F80
00000F80
00000F80
00000F80
00000F80
00000780
00000380
C0000000
E0000000
F0000000
F8000000
F8000000
F8000000
F8000000
F8000000
F8000000
F8000000
F8000000
F8000000
F8000000
F8000000
F8000000
F7FFF000
EFFFF800
5FFFFC00
3FFFFE00
1FFFFC00
ENDCHAR
STARTCHAR 00B0
ENCODING 176
SWIDTH 825 0
DWIDTH 33 0
BBX 25 22 4 17
BITMAP
1FFFFC00
3FFFFE00
5FFFFD00
EFFFFB80
F7FFF780
F8000F80
F8000F80
F8000F80
F8000F80
F8000F80
F8000F80
F8000F80
F8000F80
F8000F80
F8000F80
F8000F80
F8000F80
F7FFF780
EFFFFB80
1FFFFC00
0FFFF800
07FFF000
ENDCHAR
ENDFONT
