STARTFONT 2.1
COMMENT
COMMENT Converted from OpenType font "DSEG7Classic-Bold.ttf" by "otf2bdf 3.0".
COMMENT
FONT -FreeType-DSEG7 Classic-Bold-R-Normal--32-320-72-72-P-182-ISO10646-1
SIZE 32 72 72
FONTBOUNDINGBOX 25 32 -2 0
STARTPROPERTIES 19
FOUNDRY "FreeType"
FAMILY_NAME "DSEG7 Classic"
WEIGHT_NAME "Bold"
SLANT "R"
SETWIDTH_NAME "Normal"
ADD_STYLE_NAME ""
PIXEL_SIZE 32
POINT_SIZE 320
RESOLUTION_X 72
RESOLUTION_Y 72
SPACING "P"
AVERAGE_WIDTH 182
CHARSET_REGISTRY "ISO10646"
CHARSET_ENCODING "1"
FONT_ASCENT 32
FONT_DESCENT 0
COPYRIGHT "Created by Keshikan  with FontForge 2.0 (http://fontforge.sf.net)  "
_OTF_FONTFILE "DSEG7Classic-Bold.ttf"
_OTF_PSNAME "DSEG7Classic-Bold"
ENDPROPERTIES
CHARS 69
STARTCHAR 0020
ENCODING 32
SWIDTH 187 0
DWIDTH 6 0
BBX 0 0 0 0
BITMAP
ENDCHAR
STARTCHAR 0021
ENCODING 33
SWIDTH 812 0
DWIDTH 26 0
BBX 0 0 0 0
BITMAP
ENDCHAR
STARTCHAR 002D
ENCODING 45
SWIDTH 812 0
DWIDTH 26 0
BBX 14 4 6 14
BITMAP
7FF8
FFFC
FFFC
7FF8
ENDCHAR
STARTCHAR 002E
ENCODING 46
SWIDTH 0 0
DWIDTH 0 0
BBX 4 4 -2 0
BITMAP
60
F0
F0
60
ENDCHAR
STARTCHAR 0030
ENCODING 48
SWIDTH 812 0
DWIDTH 26 0
BBX 20 32 3 0
BITMAP
3FFFC0
3FFFC0
DFFFB0
EFFF70
F000F0
F000F0
F000F0
F000F0
F000F0
F000F0
F000F0
F000F0
F000F0
F000F0
E00070
C00030
C00030
E00070
F000F0
F000F0
F000F0
F000F0
F000F0
F000F0
F000F0
F000F0
F000F0
F000F0
EFFF70
DFFFB0
3FFFC0
3FFFC0
ENDCHAR
STARTCHAR 0031
ENCODING 49
SWIDTH 812 0
DWIDTH 26 0
BBX 4 28 19 3
BITMAP
30
70
F0
F0
F0
F0
F0
F0
F0
F0
F0
F0
70
30
70
70
F0
F0
F0
F0
F0
F0
F0
F0
F0
F0
70
30
ENDCHAR
STARTCHAR 0032
ENCODING 50
SWIDTH 812 0
DWIDTH 26 0
BBX 20 32 3 0
BITMAP
3FFFC0
3FFFC0
1FFFB0
0FFF70
0000F0
0000F0
0000F0
0000F0
0000F0
0000F0
0000F0
0000F0
0000F0
0000F0
0FFF70
1FFFB0
DFFF80
EFFF00
F00000
F00000
F00000
F00000
F00000
F00000
F00000
F00000
F00000
F00000
EFFF00
DFFF80
3FFFC0
3FFFC0
ENDCHAR
STARTCHAR 0033
ENCODING 51
SWIDTH 812 0
DWIDTH 26 0
BBX 18 32 5 0
BITMAP
FFFF00
FFFF00
7FFEC0
3FFDC0
0003C0
0003C0
0003C0
0003C0
0003C0
0003C0
0003C0
0003C0
0003C0
0003C0
3FFDC0
7FFEC0
7FFEC0
3FFDC0
0003C0
0003C0
0003C0
0003C0
0003C0
0003C0
0003C0
0003C0
0003C0
0003C0
3FFDC0
7FFEC0
FFFF00
FFFF00
ENDCHAR
STARTCHAR 0034
ENCODING 52
SWIDTH 812 0
DWIDTH 26 0
BBX 20 28 3 2
BITMAP
C00030
E00070
F000F0
F000F0
F000F0
F000F0
F000F0
F000F0
F000F0
F000F0
F000F0
F000F0
EFFF70
DFFFB0
1FFFB0
0FFF70
0000F0
0000F0
0000F0
0000F0
0000F0
0000F0
0000F0
0000F0
0000F0
0000F0
000070
000030
ENDCHAR
STARTCHAR 0035
ENCODING 53
SWIDTH 812 0
DWIDTH 26 0
BBX 20 32 3 0
BITMAP
3FFFC0
3FFFC0
DFFF80
EFFF00
F00000
F00000
F00000
F00000
F00000
F00000
F00000
F00000
F00000
F00000
EFFF00
DFFF80
1FFFB0
0FFF70
0000F0
0000F0
0000F0
0000F0
0000F0
0000F0
0000F0
0000F0
0000F0
0000F0
0FFF70
1FFFB0
3FFFC0
3FFFC0
ENDCHAR
STARTCHAR 0036
ENCODING 54
SWIDTH 812 0
DWIDTH 26 0
BBX 20 32 3 0
BITMAP
3FFFC0
3FFFC0
DFFF80
EFFF00
F00000
F00000
F00000
F00000
F00000
F00000
F00000
F00000
F00000
F00000
EFFF00
DFFF80
DFFFB0
EFFF70
F000F0
F000F0
F000F0
F000F0
F000F0
F000F0
F000F0
F000F0
F000F0
F000F0
EFFF70
DFFFB0
3FFFC0
3FFFC0
ENDCHAR
STARTCHAR 0037
ENCODING 55
SWIDTH 812 0
DWIDTH 26 0
BBX 20 30 3 1
BITMAP
3FFFC0
3FFFC0
DFFFB0
EFFF70
F000F0
F000F0
F000F0
F000F0
F000F0
F000F0
F000F0
F000F0
F000F0
F000F0
E00070
C00030
000030
000070
0000F0
0000F0
0000F0
0000F0
0000F0
0000F0
0000F0
0000F0
0000F0
0000F0
000070
000030
ENDCHAR
STARTCHAR 0038
ENCODING 56
SWIDTH 812 0
DWIDTH 26 0
BBX 20 32 3 0
BITMAP
3FFFC0
3FFFC0
DFFFB0
EFFF70
F000F0
F000F0
F000F0
F000F0
F000F0
F000F0
F000F0
F000F0
F000F0
F000F0
EFFF70
DFFFB0
DFFFB0
EFFF70
F000F0
F000F0
F000F0
F000F0
F000F0
F000F0
F000F0
F000F0
F000F0
F000F0
EFFF70
DFFFB0
3FFFC0
3FFFC0
ENDCHAR
STARTCHAR 0039
ENCODING 57
SWIDTH 812 0
DWIDTH 26 0
BBX 20 32 3 0
BITMAP
3FFFC0
3FFFC0
DFFFB0
EFFF70
F000F0
F000F0
F000F0
F000F0
F000F0
F000F0
F000F0
F000F0
F000F0
F000F0
EFFF70
DFFFB0
1FFFB0
0FFF70
0000F0
0000F0
0000F0
0000F0
0000F0
0000F0
0000F0
0000F0
0000F0
0000F0
0FFF70
1FFFB0
3FFFC0
3FFFC0
ENDCHAR
STARTCHAR 003A
ENCODING 58
SWIDTH 187 0
DWIDTH 6 0
BBX 4 17 1 7
BITMAP
60
F0
F0
60
00
00
00
00
00
00
00
00
00
60
F0
F0
60
ENDCHAR
STARTCHAR 0041
ENCODING 65
SWIDTH 812 0
DWIDTH 26 0
BBX 20 30 3 1
BITMAP
3FFFC0
3FFFC0
DFFFB0
EFFF70
F000F0
F000F0
F000F0
F000F0
F000F0
F000F0
F000F0
F000F0
F000F0
F000F0
EFFF70
DFFFB0
DFFFB0
EFFF70
F000F0
F000F0
F000F0
F000F0
F000F0
F000F0
F000F0
F000F0
F000F0
F000F0
E00070
C00030
ENDCHAR
STARTCHAR 0042
ENCODING 66
SWIDTH 812 0
DWIDTH 26 0
BBX 20 30 3 1
BITMAP
C00000
E00000
F00000
F00000
F00000
F00000
F00000
F00000
F00000
F00000
F00000
F00000
EFFF00
DFFF80
DFFFB0
EFFF70
F000F0
F000F0
F000F0
F000F0
F000F0
F000F0
F000F0
F000F0
F000F0
F000F0
EFFF70
DFFFB0
3FFFC0
3FFFC0
ENDCHAR
STARTCHAR 0043
ENCODING 67
SWIDTH 812 0
DWIDTH 26 0
BBX 18 18 3 0
BITMAP
0FFF00
1FFF80
DFFF80
EFFF00
F00000
F00000
F00000
F00000
F00000
F00000
F00000
F00000
F00000
F00000
EFFF00
DFFF80
3FFFC0
3FFFC0
ENDCHAR
STARTCHAR 0044
ENCODING 68
SWIDTH 812 0
DWIDTH 26 0
BBX 20 30 3 1
BITMAP
000030
000070
0000F0
0000F0
0000F0
0000F0
0000F0
0000F0
0000F0
0000F0
0000F0
0000F0
0FFF70
1FFFB0
DFFFB0
EFFF70
F000F0
F000F0
F000F0
F000F0
F000F0
F000F0
F000F0
F000F0
F000F0
F000F0
EFFF70
DFFFB0
3FFFC0
3FFFC0
ENDCHAR
STARTCHAR 0045
ENCODING 69
SWIDTH 812 0
DWIDTH 26 0
BBX 18 32 3 0
BITMAP
3FFFC0
3FFFC0
DFFF80
EFFF00
F00000
F00000
F00000
F00000
F00000
F00000
F00000
F00000
F00000
F00000
EFFF00
DFFF80
DFFF80
EFFF00
F00000
F00000
F00000
F00000
F00000
F00000
F00000
F00000
F00000
F00000
EFFF00
DFFF80
3FFFC0
3FFFC0
ENDCHAR
STARTCHAR 0046
ENCODING 70
SWIDTH 812 0
DWIDTH 26 0
BBX 18 30 3 1
BITMAP
3FFFC0
3FFFC0
DFFF80
EFFF00
F00000
F00000
F00000
F00000
F00000
F00000
F00000
F00000
F00000
F00000
EFFF00
DFFF80
DFFF80
EFFF00
F00000
F00000
F00000
F00000
F00000
F00000
F00000
F00000
F00000
F00000
E00000
C00000
ENDCHAR
STARTCHAR 0047
ENCODING 71
SWIDTH 812 0
DWIDTH 26 0
BBX 20 32 3 0
BITMAP
3FFFC0
3FFFC0
DFFF80
EFFF00
F00000
F00000
F00000
F00000
F00000
F00000
F00000
F00000
F00000
F00000
E00000
C00000
C00030
E00070
F000F0
F000F0
F000F0
F000F0
F000F0
F000F0
F000F0
F000F0
F000F0
F000F0
EFFF70
DFFFB0
3FFFC0
3FFFC0
ENDCHAR
STARTCHAR 0048
ENCODING 72
SWIDTH 812 0
DWIDTH 26 0
BBX 20 28 3 2
BITMAP
C00000
E00000
F00000
F00000
F00000
F00000
F00000
F00000
F00000
F00000
F00000
F00000
EFFF00
DFFF80
DFFFB0
EFFF70
F000F0
F000F0
F000F0
F000F0
F000F0
F000F0
F000F0
F000F0
F000F0
F000F0
E00070
C00030
ENDCHAR
STARTCHAR 0049
ENCODING 73
SWIDTH 812 0
DWIDTH 26 0
BBX 4 14 19 2
BITMAP
70
70
F0
F0
F0
F0
F0
F0
F0
F0
F0
F0
70
30
ENDCHAR
STARTCHAR 004A
ENCODING 74
SWIDTH 812 0
DWIDTH 26 0
BBX 20 30 3 1
BITMAP
000030
000070
0000F0
0000F0
0000F0
0000F0
0000F0
0000F0
0000F0
0000F0
0000F0
0000F0
000070
000030
C00030
E00070
F000F0
F000F0
F000F0
F000F0
F000F0
F000F0
F000F0
F000F0
F000F0
F000F0
EFFF70
DFFFB0
3FFFC0
3FFFC0
ENDCHAR
STARTCHAR 004B
ENCODING 75
SWIDTH 812 0
DWIDTH 26 0
BBX 20 30 3 1
BITMAP
3FFFC0
3FFFC0
DFFF80
EFFF00
F00000
F00000
F00000
F00000
F00000
F00000
F00000
F00000
F00000
F00000
EFFF00
DFFF80
DFFFB0
EFFF70
F000F0
F000F0
F000F0
F000F0
F000F0
F000F0
F000F0
F000F0
F000F0
F000F0
E00070
C00030
ENDCHAR
STARTCHAR 004C
ENCODING 76
SWIDTH 812 0
DWIDTH 26 0
BBX 18 30 3 1
BITMAP
C00000
E00000
F00000
F00000
F00000
F00000
F00000
F00000
F00000
F00000
F00000
F00000
E00000
C00000
C00000
E00000
F00000
F00000
F00000
F00000
F00000
F00000
F00000
F00000
F00000
F00000
EFFF00
DFFF80
3FFFC0
3FFFC0
ENDCHAR
STARTCHAR 004D
ENCODING 77
SWIDTH 812 0
DWIDTH 26 0
BBX 20 30 3 1
BITMAP
3FFFC0
3FFFC0
DFFFB0
EFFF70
F000F0
F000F0
F000F0
F000F0
F000F0
F000F0
F000F0
F000F0
F000F0
F000F0
E00070
C00030
C00030
E00070
F000F0
F000F0
F000F0
F000F0
F000F0
F000F0
F000F0
F000F0
F000F0
F000F0
E00070
C00030
ENDCHAR
STARTCHAR 004E
ENCODING 78
SWIDTH 812 0
DWIDTH 26 0
BBX 20 16 3 1
BITMAP
0FFF00
1FFF80
DFFFB0
EFFF70
F000F0
F000F0
F000F0
F000F0
F000F0
F000F0
F000F0
F000F0
F000F0
F000F0
E00070
C00030
ENDCHAR
STARTCHAR 004F
ENCODING 79
SWIDTH 812 0
DWIDTH 26 0
BBX 20 18 3 0
BITMAP
0FFF00
1FFF80
DFFFB0
EFFF70
F000F0
F000F0
F000F0
F000F0
F000F0
F000F0
F000F0
F000F0
F000F0
F000F0
EFFF70
DFFFB0
3FFFC0
3FFFC0
ENDCHAR
STARTCHAR 0050
ENCODING 80
SWIDTH 812 0
DWIDTH 26 0
BBX 20 30 3 1
BITMAP
3FFFC0
3FFFC0
DFFFB0
EFFF70
F000F0
F000F0
F000F0
F000F0
F000F0
F000F0
F000F0
F000F0
F000F0
F000F0
EFFF70
DFFFB0
DFFF80
EFFF00
F00000
F00000
F00000
F00000
F00000
F00000
F00000
F00000
F00000
F00000
E00000
C00000
ENDCHAR
STARTCHAR 0051
ENCODING 81
SWIDTH 812 0
DWIDTH 26 0
BBX 20 30 3 1
BITMAP
3FFFC0
3FFFC0
DFFFB0
EFFF70
F000F0
F000F0
F000F0
F000F0
F000F0
F000F0
F000F0
F000F0
F000F0
F000F0
EFFF70
DFFFB0
1FFFB0
0FFF70
0000F0
0000F0
0000F0
0000F0
0000F0
0000F0
0000F0
0000F0
0000F0
0000F0
000070
000030
ENDCHAR
STARTCHAR 0052
ENCODING 82
SWIDTH 812 0
DWIDTH 26 0
BBX 17 16 3 1
BITMAP
0FFF00
1FFF80
DFFF80
EFFF00
F00000
F00000
F00000
F00000
F00000
F00000
F00000
F00000
F00000
F00000
E00000
C00000
ENDCHAR
STARTCHAR 0053
ENCODING 83
SWIDTH 812 0
DWIDTH 26 0
BBX 20 30 3 1
BITMAP
C00000
E00000
F00000
F00000
F00000
F00000
F00000
F00000
F00000
F00000
F00000
F00000
EFFF00
DFFF80
1FFFB0
0FFF70
0000F0
0000F0
0000F0
0000F0
0000F0
0000F0
0000F0
0000F0
0000F0
0000F0
0FFF70
1FFFB0
3FFFC0
3FFFC0
ENDCHAR
STARTCHAR 0054
ENCODING 84
SWIDTH 812 0
DWIDTH 26 0
BBX 18 30 3 1
BITMAP
C00000
E00000
F00000
F00000
F00000
F00000
F00000
F00000
F00000
F00000
F00000
F00000
EFFF00
DFFF80
DFFF80
EFFF00
F00000
F00000
F00000
F00000
F00000
F00000
F00000
F00000
F00000
F00000
EFFF00
DFFF80
3FFFC0
3FFFC0
ENDCHAR
STARTCHAR 0055
ENCODING 85
SWIDTH 812 0
DWIDTH 26 0
BBX 20 16 3 0
BITMAP
C00030
E00070
F000F0
F000F0
F000F0
F000F0
F000F0
F000F0
F000F0
F000F0
F000F0
F000F0
EFFF70
DFFFB0
3FFFC0
3FFFC0
ENDCHAR
STARTCHAR 0056
ENCODING 86
SWIDTH 812 0
DWIDTH 26 0
BBX 20 30 3 1
BITMAP
C00030
E00070
F000F0
F000F0
F000F0
F000F0
F000F0
F000F0
F000F0
F000F0
F000F0
F000F0
E00070
C00030
C00030
E00070
F000F0
F000F0
F000F0
F000F0
F000F0
F000F0
F000F0
F000F0
F000F0
F000F0
EFFF70
DFFFB0
3FFFC0
3FFFC0
ENDCHAR
STARTCHAR 0057
ENCODING 87
SWIDTH 812 0
DWIDTH 26 0
BBX 20 30 3 1
BITMAP
C00030
E00070
F000F0
F000F0
F000F0
F000F0
F000F0
F000F0
F000F0
F000F0
F000F0
F000F0
EFFF70
DFFFB0
DFFFB0
EFFF70
F000F0
F000F0
F000F0
F000F0
F000F0
F000F0
F000F0
F000F0
F000F0
F000F0
EFFF70
DFFFB0
3FFFC0
3FFFC0
ENDCHAR
STARTCHAR 0058
ENCODING 88
SWIDTH 812 0
DWIDTH 26 0
BBX 20 28 3 2
BITMAP
C00030
E00070
F000F0
F000F0
F000F0
F000F0
F000F0
F000F0
F000F0
F000F0
F000F0
F000F0
EFFF70
DFFFB0
DFFFB0
EFFF70
F000F0
F000F0
F000F0
F000F0
F000F0
F000F0
F000F0
F000F0
F000F0
F000F0
E00070
C00030
ENDCHAR
STARTCHAR 0059
ENCODING 89
SWIDTH 812 0
DWIDTH 26 0
BBX 20 30 3 1
BITMAP
C00030
E00070
F000F0
F000F0
F000F0
F000F0
F000F0
F000F0
F000F0
F000F0
F000F0
F000F0
EFFF70
DFFFB0
1FFFB0
0FFF70
0000F0
0000F0
0000F0
0000F0
0000F0
0000F0
0000F0
0000F0
0000F0
0000F0
0FFF70
1FFFB0
3FFFC0
3FFFC0
ENDCHAR
STARTCHAR 005A
ENCODING 90
SWIDTH 812 0
DWIDTH 26 0
BBX 20 32 3 0
BITMAP
3FFFC0
3FFFC0
1FFFB0
0FFF70
0000F0
0000F0
0000F0
0000F0
0000F0
0000F0
0000F0
0000F0
0000F0
0000F0
000070
000030
C00000
E00000
F00000
F00000
F00000
F00000
F00000
F00000
F00000
F00000
F00000
F00000
EFFF00
DFFF80
3FFFC0
3FFFC0
ENDCHAR
STARTCHAR 005F
ENCODING 95
SWIDTH 812 0
DWIDTH 26 0
BBX 16 4 5 0
BITMAP
3FFC
7FFE
FFFF
FFFF
ENDCHAR
STARTCHAR 0061
ENCODING 97
SWIDTH 812 0
DWIDTH 26 0
BBX 20 30 3 1
BITMAP
3FFFC0
3FFFC0
DFFFB0
EFFF70
F000F0
F000F0
F000F0
F000F0
F000F0
F000F0
F000F0
F000F0
F000F0
F000F0
EFFF70
DFFFB0
DFFFB0
EFFF70
F000F0
F000F0
F000F0
F000F0
F000F0
F000F0
F000F0
F000F0
F000F0
F000F0
E00070
C00030
ENDCHAR
STARTCHAR 0062
ENCODING 98
SWIDTH 812 0
DWIDTH 26 0
BBX 20 30 3 1
BITMAP
C00000
E00000
F00000
F00000
F00000
F00000
F00000
F00000
F00000
F00000
F00000
F00000
EFFF00
DFFF80
DFFFB0
EFFF70
F000F0
F000F0
F000F0
F000F0
F000F0
F000F0
F000F0
F000F0
F000F0
F000F0
EFFF70
DFFFB0
3FFFC0
3FFFC0
ENDCHAR
STARTCHAR 0063
ENCODING 99
SWIDTH 812 0
DWIDTH 26 0
BBX 18 18 3 0
BITMAP
0FFF00
1FFF80
DFFF80
EFFF00
F00000
F00000
F00000
F00000
F00000
F00000
F00000
F00000
F00000
F00000
EFFF00
DFFF80
3FFFC0
3FFFC0
ENDCHAR
STARTCHAR 0064
ENCODING 100
SWIDTH 812 0
DWIDTH 26 0
BBX 20 30 3 1
BITMAP
000030
000070
0000F0
0000F0
0000F0
0000F0
0000F0
0000F0
0000F0
0000F0
0000F0
0000F0
0FFF70
1FFFB0
DFFFB0
EFFF70
F000F0
F000F0
F000F0
F000F0
F000F0
F000F0
F000F0
F000F0
F000F0
F000F0
EFFF70
DFFFB0
3FFFC0
3FFFC0
ENDCHAR
STARTCHAR 0065
ENCODING 101
SWIDTH 812 0
DWIDTH 26 0
BBX 18 32 3 0
BITMAP
3FFFC0
3FFFC0
DFFF80
EFFF00
F00000
F00000
F00000
F00000
F00000
F00000
F00000
F00000
F00000
F00000
EFFF00
DFFF80
DFFF80
EFFF00
F00000
F00000
F00000
F00000
F00000
F00000
F00000
F00000
F00000
F00000
EFFF00
DFFF80
3FFFC0
3FFFC0
ENDCHAR
STARTCHAR 0066
ENCODING 102
SWIDTH 812 0
DWIDTH 26 0
BBX 18 30 3 1
BITMAP
3FFFC0
3FFFC0
DFFF80
EFFF00
F00000
F00000
F00000
F00000
F00000
F00000
F00000
F00000
F00000
F00000
EFFF00
DFFF80
DFFF80
EFFF00
F00000
F00000
F00000
F00000
F00000
F00000
F00000
F00000
F00000
F00000
E00000
C00000
ENDCHAR
STARTCHAR 0067
ENCODING 103
SWIDTH 812 0
DWIDTH 26 0
BBX 20 32 3 0
BITMAP
3FFFC0
3FFFC0
DFFF80
EFFF00
F00000
F00000
F00000
F00000
F00000
F00000
F00000
F00000
F00000
F00000
E00000
C00000
C00030
E00070
F000F0
F000F0
F000F0
F000F0
F000F0
F000F0
F000F0
F000F0
F000F0
F000F0
EFFF70
DFFFB0
3FFFC0
3FFFC0
ENDCHAR
STARTCHAR 0068
ENCODING 104
SWIDTH 812 0
DWIDTH 26 0
BBX 20 28 3 2
BITMAP
C00000
E00000
F00000
F00000
F00000
F00000
F00000
F00000
F00000
F00000
F00000
F00000
EFFF00
DFFF80
DFFFB0
EFFF70
F000F0
F000F0
F000F0
F000F0
F000F0
F000F0
F000F0
F000F0
F000F0
F000F0
E00070
C00030
ENDCHAR
STARTCHAR 0069
ENCODING 105
SWIDTH 812 0
DWIDTH 26 0
BBX 4 14 19 2
BITMAP
70
70
F0
F0
F0
F0
F0
F0
F0
F0
F0
F0
70
30
ENDCHAR
STARTCHAR 006A
ENCODING 106
SWIDTH 812 0
DWIDTH 26 0
BBX 20 31 3 0
BITMAP
000030
000070
0000F0
0000F0
0000F0
0000F0
0000F0
0000F0
0000F0
0000F0
0000F0
0000F0
000070
000030
000000
C00030
E00070
F000F0
F000F0
F000F0
F000F0
F000F0
F000F0
F000F0
F000F0
F000F0
F000F0
EFFF70
DFFFB0
3FFFC0
3FFFC0
ENDCHAR
STARTCHAR 006B
ENCODING 107
SWIDTH 812 0
DWIDTH 26 0
BBX 20 30 3 1
BITMAP
3FFFC0
3FFFC0
DFFF80
EFFF00
F00000
F00000
F00000
F00000
F00000
F00000
F00000
F00000
F00000
F00000
EFFF00
DFFF80
DFFFB0
EFFF70
F000F0
F000F0
F000F0
F000F0
F000F0
F000F0
F000F0
F000F0
F000F0
F000F0
E00070
C00030
ENDCHAR
STARTCHAR 006C
ENCODING 108
SWIDTH 812 0
DWIDTH 26 0
BBX 18 30 3 1
BITMAP
C00000
E00000
F00000
F00000
F00000
F00000
F00000
F00000
F00000
F00000
F00000
F00000
E00000
C00000
C00000
E00000
F00000
F00000
F00000
F00000
F00000
F00000
F00000
F00000
F00000
F00000
EFFF00
DFFF80
3FFFC0
3FFFC0
ENDCHAR
STARTCHAR 006D
ENCODING 109
SWIDTH 812 0
DWIDTH 26 0
BBX 20 30 3 1
BITMAP
3FFFC0
3FFFC0
DFFFB0
EFFF70
F000F0
F000F0
F000F0
F000F0
F000F0
F000F0
F000F0
F000F0
F000F0
F000F0
E00070
C00030
C00030
E00070
F000F0
F000F0
F000F0
F000F0
F000F0
F000F0
F000F0
F000F0
F000F0
F000F0
E00070
C00030
ENDCHAR
STARTCHAR 006E
ENCODING 110
SWIDTH 812 0
DWIDTH 26 0
BBX 20 16 3 1
BITMAP
0FFF00
1FFF80
DFFFB0
EFFF70
F000F0
F000F0
F000F0
F000F0
F000F0
F000F0
F000F0
F000F0
F000F0
F000F0
E00070
C00030
ENDCHAR
STARTCHAR 006F
ENCODING 111
SWIDTH 812 0
DWIDTH 26 0
BBX 20 18 3 0
BITMAP
0FFF00
1FFF80
DFFFB0
EFFF70
F000F0
F000F0
F000F0
F000F0
F000F0
F000F0
F000F0
F000F0
F000F0
F000F0
EFFF70
DFFFB0
3FFFC0
3FFFC0
ENDCHAR
STARTCHAR 0070
ENCODING 112
SWIDTH 812 0
DWIDTH 26 0
BBX 20 30 3 1
BITMAP
3FFFC0
3FFFC0
DFFFB0
EFFF70
F000F0
F000F0
F000F0
F000F0
F000F0
F000F0
F000F0
F000F0
F000F0
F000F0
EFFF70
DFFFB0
DFFF80
EFFF00
F00000
F00000
F00000
F00000
F00000
F00000
F00000
F00000
F00000
F00000
E00000
C00000
ENDCHAR
STARTCHAR 0071
ENCODING 113
SWIDTH 812 0
DWIDTH 26 0
BBX 20 30 3 1
BITMAP
3FFFC0
3FFFC0
DFFFB0
EFFF70
F000F0
F000F0
F000F0
F000F0
F000F0
F000F0
F000F0
F000F0
F000F0
F000F0
EFFF70
DFFFB0
1FFFB0
0FFF70
0000F0
0000F0
0000F0
0000F0
0000F0
0000F0
0000F0
0000F0
0000F0
0000F0
000070
000030
ENDCHAR
STARTCHAR 0072
ENCODING 114
SWIDTH 812 0
DWIDTH 26 0
BBX 17 16 3 1
BITMAP
0FFF00
1FFF80
DFFF80
EFFF00
F00000
F00000
F00000
F00000
F00000
F00000
F00000
F00000
F00000
F00000
E00000
C00000
ENDCHAR
STARTCHAR 0073
ENCODING 115
SWIDTH 812 0
DWIDTH 26 0
BBX 20 30 3 1
BITMAP
C00000
E00000
F00000
F00000
F00000
F00000
F00000
F00000
F00000
F00000
F00000
F00000
EFFF00
DFFF80
1FFFB0
0FFF70
0000F0
0000F0
0000F0
0000F0
0000F0
0000F0
0000F0
0000F0
0000F0
0000F0
0FFF70
1FFFB0
3FFFC0
3FFFC0
ENDCHAR
STARTCHAR 0074
ENCODING 116
SWIDTH 812 0
DWIDTH 26 0
BBX 18 30 3 1
BITMAP
C00000
E00000
F00000
F00000
F00000
F00000
F00000
F00000
F00000
F00000
F00000
F00000
EFFF00
DFFF80
DFFF80
EFFF00
F00000
F00000
F00000
F00000
F00000
F00000
F00000
F00000
F00000
F00000
EFFF00
DFFF80
3FFFC0
3FFFC0
ENDCHAR
STARTCHAR 0075
ENCODING 117
SWIDTH 812 0
DWIDTH 26 0
BBX 20 16 3 0
BITMAP
C00030
E00070
F000F0
F000F0
F000F0
F000F0
F000F0
F000F0
F000F0
F000F0
F000F0
F000F0
EFFF70
DFFFB0
3FFFC0
3FFFC0
ENDCHAR
STARTCHAR 0076
ENCODING 118
SWIDTH 812 0
DWIDTH 26 0
BBX 20 30 3 1
BITMAP
C00030
E00070
F000F0
F000F0
F000F0
F000F0
F000F0
F000F0
F000F0
F000F0
F000F0
F000F0
E00070
C00030
C00030
E00070
F000F0
F000F0
F000F0
F000F0
F000F0
F000F0
F000F0
F000F0
F000F0
F000F0
EFFF70
DFFFB0
3FFFC0
3FFFC0
ENDCHAR
STARTCHAR 0077
ENCODING 119
SWIDTH 812 0
DWIDTH 26 0
BBX 20 30 3 1
BITMAP
C00030
E00070
F000F0
F000F0
F000F0
F000F0
F000F0
F000F0
F000F0
F000F0
F000F0
F000F0
EFFF70
DFFFB0
DFFFB0
EFFF70
F000F0
F000F0
F000F0
F000F0
F000F0
F000F0
F000F0
F000F0
F000F0
F000F0
EFFF70
DFFFB0
3FFFC0
3FFFC0
ENDCHAR
STARTCHAR 0078
ENCODING 120
SWIDTH 812 0
DWIDTH 26 0
BBX 20 28 3 2
BITMAP
C00030
E00070
F000F0
F000F0
F000F0
F000F0
F000F0
F000F0
F000F0
F000F0
F000F0
F000F0
EFFF70
DFFFB0
DFFFB0
EFFF70
F000F0
F000F0
F000F0
F000F0
F000F0
F000F0
F000F0
F000F0
F000F0
F000F0
E00070
C00030
ENDCHAR
STARTCHAR 0079
ENCODING 121
SWIDTH 812 0
DWIDTH 26 0
BBX 20 30 3 1
BITMAP
C00030
E00070
F000F0
F000F0
F000F0
F000F0
F000F0
F000F0
F000F0
F000F0
F000F0
F000F0
EFFF70
DFFFB0
1FFFB0
0FFF70
0000F0
0000F0
0000F0
0000F0
0000F0
0000F0
0000F0
0000F0
0000F0
0000F0
0FFF70
1FFFB0
3FFFC0
3FFFC0
ENDCHAR
STARTCHAR 007A
ENCODING 122
SWIDTH 812 0
DWIDTH 26 0
BBX 20 32 3 0
BITMAP
3FFFC0
3FFFC0
1FFFB0
0FFF70
0000F0
0000F0
0000F0
0000F0
0000F0
0000F0
0000F0
0000F0
0000F0
0000F0
000070
000030
C00000
E00000
F00000
F00000
F00000
F00000
F00000
F00000
F00000
F00000
F00000
F00000
EFFF00
DFFF80
3FFFC0
3FFFC0
ENDCHAR
STARTCHAR 00B0
ENCODING 176
SWIDTH 812 0
DWIDTH 26 0
BBX 20 18 3 14
BITMAP
3FFFC0
3FFFC0
DFFFB0
EFFF70
F000F0
F000F0
F000F0
F000F0
F000F0
F000F0
F000F0
F000F0
F000F0
F000F0
EFFF70
DFFFB0
1FFF80
0FFF00
ENDCHAR
ENDFONT
